<svg width="30" height="31" viewBox="0 0 30 31" fill="none" xmlns="http://www.w3.org/2000/svg">
    <circle cx="15.5" cy="15.5" r="13.5" fill="black" fill-opacity="0.58"/>
    <path d="M27.6906 17.6969C27.5781 18.2981 27.4326 19.0478 27.1986 19.611C27.1954 19.6189 27.1921 19.6268 27.1889 19.6346C27.0942 19.8636 26.9865 20.0937 26.8463 20.3644C26.8284 20.3989 26.8098 20.4342 26.7907 20.4702C26.6206 20.7891 26.403 21.1755 26.0704 21.676C24.9546 23.3557 23.8016 24.4503 23.4453 24.7915C22.7225 25.4666 21.85 26.0982 20.536 26.6995C20.4157 26.7538 20.2908 26.8076 20.1629 26.8603C20.059 26.9032 19.9578 26.9002 19.9377 26.8556C19.9176 26.8108 19.985 26.742 20.0873 26.6999C20.2108 26.6491 20.3311 26.5972 20.4471 26.545C20.4476 26.5447 20.4481 26.5445 20.4487 26.5443C21.7521 25.949 22.5923 25.3383 23.2907 24.6917C23.6506 24.3494 24.8196 23.2479 25.9417 21.5481C26.2715 21.0486 26.4868 20.6625 26.6544 20.3454C26.6727 20.3106 26.6904 20.2766 26.7074 20.2435C26.7078 20.2427 26.7082 20.2419 26.7087 20.2411C26.8465 19.9724 26.9475 19.7539 27.0362 19.5381C27.038 19.5335 27.0399 19.5289 27.0417 19.5243C27.2738 18.9626 27.4094 18.2362 27.5169 17.6617C27.538 17.5519 27.5926 17.4694 27.6407 17.4782C27.6888 17.4871 27.712 17.5854 27.6906 17.6969ZM3.45289 10.6952C3.61955 10.0943 3.99159 9.34598 4.39916 8.74011C4.80594 8.12623 5.25324 7.6321 5.47346 7.41203C5.68859 7.19601 5.91468 6.94756 6.19516 6.66114C6.2595 6.59552 6.32672 6.52797 6.39707 6.45896C6.62939 6.23105 6.8967 5.98598 7.20809 5.73952C8.3571 4.83996 9.19898 4.39579 9.79722 4.08428C9.92125 4.02112 10.0373 3.96409 10.1465 3.9122C10.1467 3.91211 10.1469 3.91203 10.1471 3.91194C10.5604 3.71634 10.8774 3.58924 11.1791 3.50143C11.7153 3.34802 12.163 3.25135 12.7061 3.19093C13.4547 3.10102 14.5031 2.96818 15.1981 2.90091C15.2362 2.89677 15.2753 2.89259 15.3148 2.88865C15.3746 2.8827 15.4362 2.87699 15.5 2.87166C15.9742 2.83379 16.558 2.80516 17.3851 2.8902C18.1635 2.97271 18.829 3.1449 19.3999 3.33722C19.564 3.3926 19.7189 3.44937 19.8662 3.50624C20.2397 3.65051 20.5657 3.7958 20.8727 3.93411C22.7733 4.81461 23.6541 5.69941 24.1758 6.23325C24.5725 6.65812 24.7519 6.93158 24.8813 7.12613C24.9202 7.18523 24.9538 7.23777 24.9863 7.28642C25.2749 7.72073 25.5403 8.11178 25.8269 8.60122C25.8902 8.7098 25.9543 8.82369 26.0189 8.94391C26.2344 9.34579 26.3984 9.64112 26.5309 9.87171C26.5887 9.97268 26.64 10.0617 26.6877 10.146C26.6886 10.1475 26.6895 10.1491 26.6904 10.1506C26.697 10.1623 26.7035 10.174 26.71 10.1856C26.7149 10.1944 26.7199 10.203 26.7248 10.2118C26.7273 10.2149 26.7293 10.2179 26.7309 10.22C26.7321 10.2218 26.7331 10.2231 26.7337 10.224C26.7339 10.2241 26.734 10.2243 26.7342 10.2244C26.7453 10.2401 26.7534 10.2543 26.7551 10.2572C26.758 10.2623 26.7604 10.2669 26.7616 10.2693C26.7683 10.2816 26.7763 10.2977 26.7815 10.3085C26.795 10.3362 26.818 10.3845 26.8524 10.4598C26.8841 10.5247 26.9157 10.5865 26.9546 10.6642C26.9571 10.6691 26.9596 10.674 26.962 10.6789C26.9997 10.7545 27.0431 10.8435 27.0942 10.957C27.1407 11.0603 27.1443 11.1704 27.1039 11.2013C27.0634 11.2322 26.9953 11.1736 26.9499 11.0717C26.9029 10.9661 26.8631 10.8837 26.8262 10.8088C26.8239 10.8041 26.8215 10.7994 26.8191 10.7947C26.7807 10.7169 26.7432 10.6429 26.7047 10.5631C26.6918 10.5364 26.6786 10.5088 26.6663 10.4829C26.6432 10.4369 26.6155 10.3853 26.5816 10.324C26.5748 10.3117 26.5678 10.299 26.5606 10.286C26.5142 10.2031 26.459 10.1066 26.3974 9.99809C26.2528 9.74429 26.0748 9.4221 25.842 8.99157C25.7808 8.87866 25.7194 8.77031 25.6579 8.66535C25.3732 8.18142 25.0914 7.76771 24.7856 7.31507C24.7435 7.25302 24.704 7.19265 24.6609 7.12844C24.5321 6.93909 24.3788 6.70989 24.0159 6.32365C23.5234 5.82471 22.6782 4.96977 20.8162 4.10324C20.4988 3.95954 20.1556 3.80706 19.7809 3.66325C19.6384 3.60855 19.4909 3.55515 19.3389 3.50392C18.7846 3.31748 18.1493 3.15326 17.4082 3.07214C16.5608 2.98257 15.9794 3.01424 15.5 3.05314C15.4683 3.05585 15.4371 3.05866 15.4063 3.06153C15.3891 3.06319 15.3719 3.06488 15.3548 3.06661C15.3335 3.06868 15.3124 3.07081 15.2915 3.07295C14.5601 3.13928 13.4607 3.2771 12.6456 3.38036C12.1334 3.44091 11.7114 3.53303 11.1862 3.6852C10.9272 3.76191 10.6598 3.86774 10.2595 4.05519C10.1474 4.10798 10.0251 4.16737 9.89 4.23594C9.28918 4.54792 8.44633 4.99272 7.30183 5.89181C7.00485 6.12777 6.75259 6.35887 6.52462 6.58223C6.45381 6.65164 6.38508 6.72055 6.31836 6.78867C6.04035 7.07251 5.79181 7.34615 5.54812 7.59409C5.34747 7.79712 4.9221 8.27003 4.53288 8.85988C4.13787 9.45079 3.80348 10.1348 3.65467 10.6548C3.639 10.7087 3.62345 10.7631 3.60833 10.8176C3.47728 11.2869 3.37614 11.7711 3.3567 12.1716C3.38309 13.0835 3.26218 14.2611 3.279 15.5C3.28606 16.7495 3.44461 18.0391 3.72944 19.0296C3.73671 19.0554 3.74407 19.0812 3.75151 19.1069C4.41672 21.3893 5.54713 22.7701 5.90283 23.2216C5.92007 23.2429 5.93583 23.2622 5.95003 23.2795C5.9627 23.2949 5.97428 23.3088 5.98443 23.3211C6.13694 23.5055 6.28099 23.6609 6.43557 23.8197C6.44402 23.8283 6.45248 23.837 6.46096 23.8456C6.62502 24.0128 6.80068 24.1843 7.00983 24.3852C7.78984 25.1314 8.51882 25.635 9.17206 26.0206C9.29316 26.0917 9.41214 26.159 9.5293 26.2226C9.52964 26.2228 9.52998 26.2229 9.53033 26.2231C10.0442 26.5016 10.5184 26.7135 10.9744 26.8951C11.8084 27.2235 12.403 27.3583 12.8627 27.4492C13.008 27.4772 13.1413 27.4999 13.2678 27.5194C13.5418 27.5616 13.7816 27.5901 14.0293 27.6175C14.4958 27.6686 14.9274 27.6822 15.3523 27.6756C15.3903 27.675 15.4283 27.6743 15.4662 27.6734C15.4775 27.6731 15.4887 27.6728 15.5 27.6725C15.9509 27.6599 16.393 27.6253 16.8582 27.5736C16.9692 27.5612 17.0657 27.5887 17.0744 27.637C17.083 27.6852 16.999 27.7362 16.8863 27.7489C16.4164 27.8014 15.9688 27.8373 15.5 27.8503C15.5 27.8503 15.5 27.8503 15.5 27.8503C15.4613 27.8514 15.4224 27.8524 15.3835 27.8531C14.9532 27.8608 14.5075 27.8477 14.0256 27.7955C13.7831 27.7689 13.5537 27.7423 13.2807 27.7012C13.1507 27.6815 13.0121 27.6586 12.8564 27.6289C12.3824 27.5363 11.7712 27.3988 10.9166 27.063C10.4595 26.8813 9.98417 26.6697 9.46278 26.3883C9.34306 26.3235 9.22102 26.255 9.09657 26.1821C8.43171 25.791 7.68777 25.2784 6.89182 24.5178C6.69129 24.3253 6.52192 24.1608 6.3558 23.9924C6.34651 23.983 6.33723 23.9735 6.32796 23.964C6.17214 23.8047 6.01731 23.639 5.85376 23.4415C5.83194 23.4151 5.80423 23.3813 5.77109 23.3404C5.40951 22.8822 4.25677 21.4767 3.58014 19.1523C3.5781 19.1452 3.57607 19.138 3.57404 19.1308C3.14307 17.5753 3.12227 16.6584 3.04199 15.9778C3.02455 15.8066 3.01364 15.6478 3.00716 15.5C2.99347 15.1825 2.99933 14.9246 3.01077 14.696C3.01399 14.6324 3.01751 14.5723 3.02134 14.5151C3.03803 14.2687 3.05736 14.0735 3.07008 13.8778C3.11105 13.2866 3.1358 12.8571 3.15313 12.3243C3.1689 11.8702 3.27934 11.3292 3.407 10.861C3.40719 10.8603 3.40738 10.8596 3.40758 10.8589C3.4226 10.8032 3.43781 10.7486 3.45289 10.6952ZM27.7036 12.4881C27.7296 12.6001 27.7103 12.6994 27.6624 12.7091C27.6144 12.7188 27.5563 12.6366 27.5306 12.5264C27.4694 12.2633 27.3992 12.0012 27.3207 11.7425C27.2878 11.6338 27.2971 11.5344 27.3437 11.5197C27.3904 11.5051 27.4573 11.5823 27.4908 11.693C27.5704 11.9553 27.6416 12.2213 27.7036 12.4881ZM2.44704 10.864C2.47895 10.7442 2.55164 10.6389 2.60639 10.6298C2.66113 10.6207 2.67706 10.7095 2.64463 10.8276C2.62755 10.89 2.60053 10.993 2.56698 11.1323C2.39363 11.8397 2.06109 13.5148 2.17967 15.5C2.22431 16.3138 2.33799 17.1744 2.52731 18.0306C2.58184 18.2776 2.63853 18.4992 2.6966 18.7067C2.96475 19.5915 3.26317 20.2807 4.08254 21.8225C6.28945 25.9056 10.7882 28.7007 15.5 28.6859C18.2485 28.7124 21.0024 27.8165 23.1846 26.1609C24.8901 24.8751 26.2927 23.2099 27.2403 21.3016C28.1428 19.7486 28.7606 16.4978 28.6935 15.7178C28.6969 15.5967 28.7376 15.4989 28.7865 15.5C28.8354 15.5012 28.874 15.6023 28.8705 15.7252C28.9379 16.5096 28.3163 19.7939 27.4076 21.3635C26.4516 23.2955 25.0362 24.9818 23.3139 26.286C21.0997 27.9729 18.3112 28.9187 15.5 28.9297C10.7042 29.0148 6.0085 26.2196 3.73487 22.004C2.89775 20.4238 2.80743 19.677 2.53504 18.7889C2.47549 18.5783 2.41709 18.353 2.36061 18.1001C2.16359 17.2193 2.04596 16.3341 2.00025 15.5C1.8843 13.5496 2.19707 11.9033 2.36727 11.1859C2.40132 11.04 2.42915 10.931 2.44704 10.864ZM5.58882 5.93475C6.54493 4.89775 8.18286 3.68512 9.79271 2.99492C10.5719 2.649 11.3291 2.40651 11.9412 2.24757C12.8929 2.00425 13.5138 1.96366 14.1236 1.94093C14.1301 1.94072 14.1366 1.94051 14.1431 1.9403C14.5558 1.92898 14.9683 1.93128 15.5 1.94767C15.7521 1.9559 16.0262 1.96797 16.3416 1.98931C17.33 2.0513 18.6985 2.24084 20.0188 2.68175C20.0198 2.68211 20.0208 2.68247 20.0219 2.68283C21.3347 3.10732 22.6322 3.707 23.46 4.31298C26.3483 6.45874 27.233 8.63031 27.6381 9.61209C28.3305 11.3788 29.012 13.4883 28.7964 15.4364C28.7489 15.6492 28.6194 15.2907 28.6406 14.9059C28.641 14.8919 28.6415 14.878 28.6419 14.864C28.6456 14.7307 28.6469 14.6127 28.6408 14.4485C28.6274 14.2112 28.6084 14.0346 28.589 13.8737C28.6151 13.4393 27.9203 10.5648 27.4438 9.60922C27.0522 8.6865 26.0365 6.71369 23.2244 4.62651C22.4404 4.05367 21.2993 3.28772 19.9901 2.85952C19.9866 2.85833 19.983 2.85715 19.9795 2.85597C18.687 2.42192 17.3239 2.22839 16.332 2.16642C16.0218 2.14537 15.7503 2.13337 15.5 2.12532C14.9411 2.1084 14.5117 2.1077 14.0914 2.12097C14.0854 2.12115 14.0795 2.12134 14.0735 2.12152C13.4776 2.14613 12.8926 2.18736 11.9883 2.41835C11.3708 2.57854 10.6153 2.82222 9.84184 3.16727C8.26142 3.84932 6.66779 5.0304 5.73008 6.04349C5.64436 6.13366 5.54415 6.18434 5.50454 6.15504C5.46507 6.12572 5.50202 6.02639 5.58882 5.93475ZM4.81619 5.14535C7.43987 2.13136 11.5709 0.436301 15.5 0.646807C15.796 0.659779 16.0867 0.682046 16.3785 0.7136C17.4719 0.777762 18.9943 1.03453 20.4278 1.56414C20.4439 1.57009 20.4601 1.57606 20.4762 1.58206C21.8974 2.09759 23.2005 2.8651 24.0668 3.50006C27.1605 5.80055 28.1997 8.09243 28.6445 9.1573C29.0324 10.1915 29.1101 10.4834 29.2596 10.9088C29.2634 10.9205 29.2672 10.9322 29.271 10.9439C29.2714 10.9446 29.2718 10.9453 29.2722 10.946C29.2792 10.96 29.2845 10.972 29.2871 10.9781C29.2924 10.9907 29.2963 11.0012 29.2977 11.0051C29.3011 11.0141 29.3036 11.0218 29.3045 11.0245C29.3082 11.0356 29.3123 11.0484 29.3149 11.0566C29.3391 11.1338 29.4085 11.3747 29.4549 11.5686C29.5028 11.7672 29.5297 11.911 29.5556 12.0616C29.5582 12.0769 29.5608 12.0921 29.5634 12.1074C29.5861 12.2436 29.6097 12.3922 29.6419 12.6063C29.6612 12.7361 29.6339 12.8359 29.5834 12.829C29.5328 12.822 29.478 12.713 29.4583 12.5847C29.4241 12.3622 29.3986 12.2064 29.3754 12.0714C29.3728 12.0564 29.3703 12.0414 29.3676 12.0265C29.3425 11.8844 29.318 11.7583 29.2759 11.5847C29.2104 11.3345 29.1525 11.1512 29.0974 10.9839C28.9451 10.5487 28.8548 10.2157 28.4473 9.14766C28.0206 8.15594 27.0375 5.9372 23.9649 3.64497C23.1075 3.01624 21.8184 2.25737 20.4156 1.74851C20.3992 1.7425 20.3828 1.73651 20.3663 1.73055C18.9494 1.2072 17.4475 0.954025 16.3696 0.890526C16.0792 0.871733 15.7915 0.862092 15.5 0.861267C11.5748 0.84199 7.78929 2.50112 4.95859 5.25299C4.41839 5.81891 3.96678 6.37484 3.58131 6.91298C2.45439 8.50253 1.85997 9.91215 1.54838 11.2947C1.48432 11.5978 1.26414 12.3848 1.13105 13.5469C1.09253 13.8877 1.06216 14.2609 1.04747 14.6671C1.03794 14.9321 1.03515 15.2082 1.0412 15.5C1.05784 16.2975 1.14194 17.1872 1.34039 18.1351C1.39691 18.4047 1.45601 18.6469 1.51693 18.8742C1.79852 19.8397 2.00222 20.622 2.88829 22.3291C3.9091 24.491 6.82467 27.333 8.76816 28.2592C9.70736 28.7689 10.2753 28.9853 10.6724 29.1439C10.7834 29.187 10.8816 29.224 10.9721 29.2571C11.2093 29.3433 11.3935 29.4055 11.6396 29.4781C13.0076 29.8684 14.1075 30.0041 15.5 29.99C15.9168 29.9826 16.3564 29.957 16.8379 29.903C16.9683 29.8884 17.0876 29.9129 17.103 29.9604C17.1186 30.0077 17.0223 30.0608 16.8902 30.076C16.3904 30.1332 15.9334 30.1603 15.5 30.1677C14.0978 30.1817 12.974 30.0444 11.581 29.6457C11.321 29.5689 11.1212 29.5008 10.8773 29.4114C10.7871 29.3782 10.6912 29.3419 10.5847 29.3003C10.1895 29.1416 9.62101 28.9244 8.67548 28.4106C6.7121 27.4734 3.76642 24.6004 2.73521 22.4189C1.84625 20.708 1.64215 19.9317 1.35554 18.9586C1.29316 18.7284 1.23212 18.4817 1.17377 18.2067C0.96719 17.2322 0.880193 16.3173 0.863351 15.5C0.857541 15.2173 0.859979 14.9488 0.868673 14.6919C0.882679 14.2809 0.912434 13.9046 0.950515 13.5605C1.08676 12.3602 1.29883 11.6123 1.35125 11.3485C1.66664 9.89814 2.29694 8.40903 3.45211 6.78858C3.8389 6.25055 4.28776 5.7004 4.81619 5.14535ZM23.9093 27.3182C23.8027 27.3974 23.6862 27.4314 23.6509 27.3963C23.6157 27.3612 23.6737 27.2712 23.779 27.1935C24.3352 26.7814 24.7072 26.4505 24.992 26.1872C25.5152 25.6951 25.7485 25.4383 26.0997 25.0564C27.001 24.0645 27.7223 22.9762 28.248 21.9373C29.1292 20.2069 29.4621 18.6392 29.6045 17.8198C29.6272 17.6903 29.6826 17.5925 29.7308 17.6008C29.779 17.6092 29.8016 17.7219 29.7786 17.8532C29.635 18.6768 29.3014 20.2523 28.4153 21.999C27.8839 23.0529 27.1533 24.1597 26.2355 25.1706C25.8908 25.5457 25.6684 25.7916 25.1524 26.2806C24.8654 26.5479 24.4864 26.8886 23.9093 27.3182Z"
          fill="#918375"/>
    <path d="M14.6309 9.70508H15.0137V9.81445H15.4785V9.92383H15.8613V10.0332H15.957V10.1289H16.2305V10.0332H16.3262V9.92383H16.4219V10.0332H16.5176V10.1289H16.4219V10.2383H16.3262V10.3477H16.2305V10.8809H16.1348V10.9766H15.957V11.1953H15.8613V11.291H15.957V12.6719H15.8613V12.7812H15.957V12.9863H15.8613V13.3145H15.957V13.7246H15.8613V13.834H12.9355V13.9434H11.9922V14.0527H11.7051V13.9434H11.0488V14.0527H10.584V14.1484H10.3926V14.2578H10.1055V14.1484H9.83203V14.0527H9.73633V13.9434H9.44922V14.0527H9.35352V14.1484H9.16211V14.0527H9.08008V13.9434H8.98438V13.834H8.79297V13.7246H8.69727V13.4102H8.79297V13.3145H8.88867V13.2051H9.25781V13.0957H10.1055V13.2051H10.3926V13.3145H10.7754V13.2051H13.2227V13.3145H14.2617V13.2051H14.3438V12.9863H14.4395V12.6719H14.5352V12.1387H14.4395V11.8242H14.3438V11.0859H14.2617V10.0332H14.3438V9.92383H14.4395V9.81445H14.6309V9.70508ZM19.5254 12.1387H20.0039V12.248H20.1953V12.3574H20.291V12.4668H20.373V12.5625H20.4688V12.6719H20.6602V12.7812H20.7559V12.8906H20.8516V12.9863H20.9473V13.2051H21.1387V13.3145H21.2207V13.4102H21.3164V13.7246H21.2207V13.834H21.1387V13.9434H20.8516V13.834H19.252V13.7246H19.1562V13.6289H19.0605V13.834H18.9648V13.9434H18.8691V14.0527H18.5957V13.9434H18.2129V13.834H18.1172V13.9434H17.1738V13.834H16.8867V13.9434H16.4219V13.834H16.3262V13.7246H16.2305V13.6289H16.3262V13.5195H16.8867V13.4102H17.2695V13.5195H17.7344V13.4102H18.5957V13.3145H18.8691V13.2051H18.9648V12.9863H19.0605V12.8906H19.252V12.4668H19.3477V12.3574H19.4434V12.248H19.5254V12.1387ZM13.0312 15.8438H13.3184V15.9531H13.4141V16.0625H13.5918V15.9531H13.8789V16.0625H14.0703V16.1582H14.3438V16.2676H14.918V16.377H15.0137V16.4863H15.1094V16.582H15.1914V16.9102H15.0137V17.0059H14.918V17.1152H14.7266V17.2246H14.6309V17.334H14.5352V17.4297H14.166V17.5391H14.0703V17.6484H13.9746V17.7578H13.8789V17.8535H13.7832V17.9629H13.6875V18.168H13.5918V18.2773H13.4961V18.3867H13.4141V18.5918H13.3184V18.7012H13.2227V18.8105H12.9355V18.9199H12.7441V19.125H12.6484V19.3438H12.5664V19.4395H12.375V19.5488H12.2793V19.6582H12.0879V19.7676H11.9922V19.8633H11.8008V20.082H11.7051V20.1914H11.5273V20.2871H11.3359V20.3965H11.2402V20.5059H11.0488V20.6016H10.9531V20.7109H10.7754V20.9297H10.6797V21.0254H10.3926V21.1348H10.1055V21.2441H9.64062V21.0254H9.73633V20.8203H9.83203V20.7109H9.92773V20.6016H10.0098V20.5059H10.1055V20.3965H10.2012V20.2871H10.3926V20.1914H10.584V20.082H10.6797V19.8633H10.7754V19.7676H10.9531V19.6582H11.0488V19.4395H11.1445V19.2344H11.2402V19.125H11.3359V19.0156H11.4316V18.9199H11.5273V18.8105H11.623V18.5918H11.7051V18.3867H11.8008V18.2773H11.9922V17.9629H12.0879V17.8535H12.1836V17.7578H12.2793V17.6484H12.375V17.5391H12.2793V17.2246H12.375V17.1152H12.5664V17.0059H12.6484V16.4863H12.7441V16.2676H12.8398V16.1582H12.9355V15.9531H13.0312V15.8438ZM16.3262 15.8438H16.8047V15.9531H16.8867V16.0625H16.9824V16.1582H17.0781V16.2676H17.1738V16.377H17.2695V16.4863H17.3652V16.582H17.4609V16.6914H17.5566V16.8008H17.8301V16.9102H17.9258V17.0059H18.0215V17.1152H18.1172V17.2246H18.2129V17.334H18.3086V17.5391H18.4043V17.7578H18.7734V17.8535H18.8691V17.9629H18.9648V18.168H18.5957V18.3867H18.9648V18.168H19.252V18.2773H19.3477V18.3867H19.6211V18.4961H19.7168V18.5918H19.8125V18.7012H19.9082V18.8105H20.1953V18.9199H20.291V19.125H20.373V19.3438H20.4688V19.4395H20.5645V19.5488H20.6602V19.6582H20.7559V19.7676H20.8516V19.8633H20.9473V20.9297H20.8516V21.0254H20.7559V21.1348H20.373V21.2441H20.291V21.3535H19.8125V21.2441H19.4434V21.1348H19.3477V21.0254H19.252V20.7109H19.1562V20.6016H19.0605V20.2871H18.9648V20.1914H18.8691V20.082H18.7734V19.9727H18.6777V19.8633H18.5957V19.5488H18.5V19.4395H18.4043V19.3438H18.3086V18.9199H18.2129V18.7012H18.1172V18.3867H18.0215V18.2773H17.9258V18.168H17.8301V18.0723H17.7344V17.9629H17.5566V17.8535H17.4609V17.4297H17.3652V17.334H17.1738V17.2246H16.9824V17.1152H16.8867V17.0059H16.709V16.9102H16.6133V16.6914H16.5176V16.582H16.4219V16.4863H16.3262V16.377H16.2305V15.9531H16.3262V15.8438ZM12.9355 17.6484V17.7578H13.2227V17.6484H12.9355ZM18.7734 18.8105V18.9199H18.9648V18.8105H18.7734Z"
          fill="#918375"/>
</svg>
