<svg width="33" height="35" viewBox="0 0 33 35" fill="none" xmlns="http://www.w3.org/2000/svg">
    <path d="M2.54313 21.435C2.45434 21.3801 2.44466 21.187 2.36475 21.0975C2.03099 20.7213 1.96303 20.5262 1.67791 20.1689C1.25525 19.6392 -0.278645 18.3463 0.358494 17.7091C0.35851 17.7091 0.358526 17.7091 0.358542 17.7091C0.364791 17.7028 0.371245 17.6967 0.377915 17.6905C0.504257 17.5741 0.756988 17.5618 0.912108 17.4424C1.06726 17.3228 1.9405 16.4229 2.16109 16.5438C2.47433 16.7256 2.84086 17.5468 2.98297 17.6688C3.08018 17.7521 3.27191 17.7826 3.40164 17.8838C3.81992 18.2098 3.95571 18.4635 4.50994 18.5798C4.52868 18.8293 4.54742 19.0788 4.56616 19.3283C4.79464 19.4498 4.90769 19.8672 5.02238 19.9651C5.11649 20.0454 5.25883 20.0053 5.35397 20.0919C5.46119 20.1886 5.51929 20.4437 5.71956 20.6143C6.04744 20.8944 6.33955 20.7105 6.55218 20.8627C6.77262 21.0206 6.93743 21.4441 7.26254 21.6017C7.319 21.6058 7.37545 21.6099 7.4319 21.614C7.46943 21.5331 7.50695 21.4522 7.54448 21.3713C7.69361 21.4653 7.62454 21.6389 7.73405 21.7528C7.86283 21.8869 8.04494 21.8389 8.13285 21.9279C8.20476 22.0009 8.21074 22.1913 8.31047 22.2795C8.45538 22.4085 8.55863 22.2454 8.65725 22.2942C8.69634 22.3139 9.31352 22.784 9.34525 22.8137C9.58377 23.0417 9.42177 23.2443 9.59184 23.4463C10.0643 24.0056 10.7412 24.3879 11.2741 24.8095C11.5121 24.9976 11.7238 25.2306 11.9071 25.4722C11.1059 25.6041 11.4833 26.7079 11.9365 25.7008C12.069 26.0411 12.4337 26.0116 12.6245 26.269C12.7477 26.4357 12.7468 26.6373 12.9564 26.8416C13.329 27.2035 14.0185 27.3174 13.604 27.9432C14.1268 28.2826 14.3115 28.8447 14.9261 28.5409C15.0653 28.624 15.0767 29.1824 15.1642 29.3442C15.2472 29.4972 16.0284 30.5254 16.1696 30.6803C16.3107 30.8352 16.5623 31.1019 16.7273 31.1862C16.7941 31.2208 16.9007 31.2057 17.0049 31.1979L15.1303 31.1979C15.1139 30.9804 15.1292 30.7734 15.6942 30.9613C15.9734 30.5921 16.1048 30.4925 16.471 30.2557C16.5373 30.2128 16.6262 30.2893 16.6581 30.2574C16.7238 30.1917 16.7745 30.0189 16.8843 29.8942C17.065 29.6891 17.349 29.753 17.0618 29.5088C17.1444 29.3371 17.227 29.1655 17.3096 28.9938C17.4055 29.0004 17.5014 29.0071 17.5973 29.0138C17.6094 28.8899 17.6215 28.7661 17.6336 28.6422C17.9381 29.1065 18.1897 28.4012 17.8138 28.336C18.1398 28.169 18.4658 28.0021 18.7918 27.8351C19.1943 28.3064 19.3834 27.3444 19.0973 27.1553C19.1259 27.1274 19.1544 27.0996 19.183 27.0717C19.546 26.941 19.6778 26.6192 20.0567 26.3962C20.4355 26.1733 20.4498 26.244 20.7423 26.3535C20.8016 26.2712 20.8609 26.1889 20.9202 26.1065C20.7408 25.184 21.629 26.2036 21.8427 25.1447C22.3922 25.2876 22.7115 24.6046 22.9388 24.1674C22.9652 24.1165 22.8987 24.0486 22.9295 23.9764C23.0055 23.8007 23.4131 23.5659 23.1854 23.3601C23.3593 23.3116 23.5332 23.2631 23.7071 23.2146C23.7586 23.0843 23.8101 22.954 23.8616 22.8237C23.7934 22.7565 23.7253 22.6893 23.6572 22.6221C24.0708 22.6697 24.2698 22.2934 24.4668 22.2067C24.5062 22.1897 24.6057 22.2769 24.7189 22.2146C24.8517 22.1423 25.0152 21.9235 25.1666 21.8305C25.1107 21.6796 25.0548 21.5286 24.9989 21.3777C25.1614 21.1031 25.5111 21.2992 25.6607 21.192C25.6875 21.1726 26.0895 20.7314 26.1063 20.7029C26.2461 20.4707 25.9609 20.2909 26.5485 19.8028C26.6533 19.7161 26.8113 19.7191 26.9011 19.6357C27.0598 19.4886 27.3381 18.8454 27.2057 18.6405C27.6023 18.6661 28.0123 18.0835 28.2194 17.9983C28.2823 17.973 28.4267 18.0974 28.5909 17.9905C28.7241 17.9039 28.8996 17.5131 29.0571 17.3917C29.2247 17.2633 29.3905 17.3234 29.4648 17.265C29.5348 17.2098 29.5014 17.0609 29.5873 16.9761C29.857 16.7127 30.2451 16.6181 30.4584 16.4102C30.4617 16.407 30.4649 16.4038 30.4681 16.4006V17.7347C30.1659 17.4355 29.6344 17.4349 29.2636 17.3012C29.2178 17.2205 29.2136 17.1004 29.1478 17.0335C28.3358 16.2045 27.4599 15.2292 26.6948 14.3485C26.3393 13.9399 25.7556 12.6235 25.3979 13.4883C25.158 13.4626 24.4391 12.2508 24.2592 12.0635C24.0793 11.8762 23.8242 11.8403 23.6783 11.6976C23.2381 11.2669 23.0104 10.8813 22.3849 10.4467C22.2231 10.3348 21.9465 10.318 21.867 10.2354C21.7715 10.1356 21.792 9.90495 21.6734 9.77047C21.3899 9.4509 20.7867 8.93026 20.5191 8.61924C20.4705 8.56217 20.5623 8.43335 20.5212 8.32334C20.3617 7.89448 20.0202 7.57641 19.7265 7.98684C19.5493 7.40989 19.0182 7.24341 18.6576 6.90514C17.8959 6.18909 16.6322 4.76104 15.8406 4.26533C15.3415 3.95281 15.1939 4.1211 14.7327 3.3873C14.7259 3.37659 14.7192 3.36584 14.7126 3.35503L17.4225 3.35503C17.2691 3.44953 17.1062 3.53688 16.9222 3.65349C16.4603 3.94575 15.8226 3.99997 15.8867 4.63893C15.3767 4.96657 15.1078 5.36479 14.4964 5.3749C14.5319 5.48364 14.5674 5.59238 14.6029 5.70111C14.5533 5.75425 14.5037 5.80738 14.4542 5.86051C14.3694 5.80776 14.2846 5.75501 14.1998 5.70226C13.8135 6.05159 13.6294 6.8009 13.316 7.11021C12.7908 7.62907 11.3364 8.86387 10.7485 9.2661C10.4365 9.47962 10.5696 9.64105 10.1164 9.48876C10.0787 9.56861 10.0409 9.64844 10.0032 9.72829C10.0327 9.83137 10.0622 9.93444 10.0917 10.0375C9.75722 10.3773 9.25434 10.6743 8.93419 10.9965C8.351 11.584 7.65455 12.6453 6.94695 13.1133C6.76935 13.2304 6.44842 13.2779 6.30565 13.4238C6.09772 13.636 6.27353 13.9139 6.01122 14.1847C5.55871 14.651 4.43961 15.243 4.02554 15.6973C3.9024 15.8322 3.92664 15.9767 3.8466 16.0748C3.5119 16.4869 3.19844 16.7866 2.97082 17.2751C2.36895 17.4422 2.12155 17.1284 1.71925 16.9644C1.41525 16.841 0.643096 16.6226 0.416622 16.4747C0.257516 16.3708 0.191446 16.0986 0.0080131 15.9925C0.353047 15.4163 0.673815 15.3501 1.25146 15.1796C1.93408 14.4808 2.6167 13.7819 3.29933 13.0831C3.44118 13.0993 3.58303 13.1154 3.72488 13.1316C3.72505 13.1318 3.72523 13.1319 3.7254 13.1321C4.08185 12.958 3.9908 12.6421 4.08767 12.4529C5.01505 10.641 8.05687 8.29147 9.61451 6.83351C9.95002 6.5192 10.9005 5.3558 11.2518 5.26117C11.3429 5.23687 11.4808 5.34264 11.5475 5.28653C12.0237 4.66543 12.4999 4.04434 12.9761 3.42324C13.843 2.80544 14.5768 2.02149 15.2929 1.22535L15.995 0.454046L16.8423 1.22535C17.2561 1.59757 17.6732 1.965 18.072 2.34385C21.2268 5.34059 24.3679 8.2896 27.3641 11.3441C27.943 11.9347 28.7762 12.5854 29.2898 13.2166C29.5043 13.4799 29.4082 13.7751 29.8678 13.9431C29.8184 13.9991 29.769 14.0552 29.7196 14.1112C30.0571 14.3214 30.352 14.3765 30.6713 14.6714C30.9399 14.9198 31.6319 15.5961 31.8402 15.8448C31.9487 15.9734 31.806 16.0277 31.917 16.1377C31.9391 16.1595 31.966 16.1823 31.9966 16.2062L32.8543 16.9869L31.9966 17.9291C31.8153 18.162 31.5792 18.6109 31.3485 18.8416C31.112 19.0781 30.5999 19.3632 30.4346 19.5615C29.8382 20.2745 29.2932 21.1558 28.5505 21.8084C28.345 21.9884 27.9694 22.1086 27.9126 22.1725C27.8021 22.2978 27.8911 22.457 27.8278 22.5522C27.5061 23.035 26.7317 23.5147 26.3315 23.9031C25.0276 25.1689 23.7206 26.5842 22.4185 27.8407C21.5959 28.6346 20.2746 29.9996 19.4351 30.6525C19.254 30.7932 19.161 30.6144 19.0259 30.7495C18.8761 30.8994 18.8867 31.0723 18.8242 31.1498C18.4313 31.637 17.5897 32.6403 17.0254 33.0931L16.1573 34.0467L15.1097 33.0931C15.0638 33.0359 15.0236 32.9815 14.9901 32.9308C14.921 32.8256 14.9642 32.6559 14.9117 32.6041C14.8853 32.5777 14.7529 32.5907 14.6626 32.5152C13.8647 31.8488 13.3733 31.2727 12.6809 30.5304C11.3542 29.1093 9.62711 27.6526 8.257 26.1362C7.95845 25.8058 7.95344 25.3796 7.9071 25.3375C7.80582 25.2447 7.60203 25.3242 7.37051 25.1627C6.60204 24.6243 5.87319 23.5931 5.18066 23.0426C4.83861 22.7705 4.23683 22.5284 3.89486 22.2661C3.62171 22.0565 3.12229 21.416 2.93637 21.388C2.82358 21.3706 2.64025 21.4938 2.54313 21.435ZM13.0587 27.1803C12.7707 27.3823 13.4261 27.6306 13.3881 27.3295C13.3796 27.2618 13.1334 27.1278 13.0587 27.1803ZM28.4787 15.5065C28.4129 15.5806 28.3471 15.6547 28.2812 15.7288C28.3697 15.759 28.4581 15.7892 28.5465 15.8194C28.5553 15.744 28.564 15.6686 28.5727 15.5932C28.5414 15.5643 28.5101 15.5354 28.4787 15.5065Z"
          fill="#918375"/>
    <path d="M18.913 9.9395C18.913 11.5754 16.8478 16.0752 16.125 16.0752C15.4021 16.0752 13.3369 11.5754 13.3369 9.9395C13.3369 8.30359 14.5852 6.97742 16.125 6.97742C17.6648 6.97742 18.913 8.30359 18.913 9.9395Z"
          fill="white"/>
    <path d="M18.6673 10.4598L19.1194 10.6733L18.6673 10.4598ZM18.6167 10.8326L18.1227 10.9101L18.6167 10.8326ZM18.6793 11.2314L19.1732 11.1539L18.6793 11.2314ZM18.6391 11.6055L19.102 11.7946L18.6391 11.6055ZM18.5677 11.7803L18.1049 11.5912L18.5677 11.7803ZM18.4963 11.9551L18.0335 11.766L18.4963 11.9551ZM18.3595 12.306L17.8908 12.1319L18.3595 12.306ZM18.2941 12.4821L18.7629 12.6561L18.2941 12.4821ZM18.2287 12.6582L17.76 12.4841L18.2287 12.6582ZM18.1379 13.0288L18.6336 13.0937L18.1379 13.0288ZM18.1124 13.2233L17.6166 13.1583L18.1124 13.2233ZM18.0869 13.4178L17.5912 13.3528L18.0869 13.4178ZM17.7422 13.8777L17.4225 13.4932L17.7422 13.8777ZM17.5825 14.0104L17.2629 13.626L17.5825 14.0104ZM17.4152 14.3529L16.9156 14.3347L17.4152 14.3529ZM17.4076 14.5626L16.9079 14.5444L17.4076 14.5626ZM17.3999 14.7724L17.8996 14.7906L17.3999 14.7724ZM17.254 15.1211L16.8995 14.7685L17.254 15.1211ZM16.9774 15.3991L16.623 15.0465L16.9774 15.3991ZM16.6603 15.6015L16.8272 16.0728L16.6603 15.6015ZM16.3026 15.7282L16.1357 15.2568L16.3026 15.7282ZM16.0528 15.7354L16.3629 15.3431L16.0528 15.7354ZM15.9818 15.6793L16.2919 15.287L15.9818 15.6793ZM15.9108 15.6231L15.6007 16.0154L15.9108 15.6231ZM15.6331 15.4833L15.4454 15.9468L15.6331 15.4833ZM15.2195 15.3159L15.0319 15.7793L15.2195 15.3159ZM14.9965 15.0245L15.495 14.9855L14.9965 15.0245ZM14.9803 14.8169L14.4818 14.8559L14.9803 14.8169ZM14.964 14.6093L14.4655 14.6483L14.964 14.6093ZM14.7821 14.2732L14.4757 14.6683L14.7821 14.2732ZM14.4508 14.0162L14.7572 13.6211L14.4508 14.0162ZM14.1675 13.3182L13.6778 13.4194L14.1675 13.3182ZM14.1437 12.9212L13.645 12.8842L14.1437 12.9212ZM14.1591 12.7141L13.6604 12.677L14.1591 12.7141ZM14.1745 12.5069L14.6731 12.5439L14.1745 12.5069ZM14.0458 12.1523L14.4034 11.8028L14.0458 12.1523ZM13.9017 12.0048L13.5441 12.3542L13.9017 12.0048ZM13.7576 11.8574L13.4 12.2068L13.7576 11.8574ZM13.5401 11.5334L14.0018 11.3414L13.5401 11.5334ZM13.4667 11.3569L13.0051 11.5489L13.4667 11.3569ZM13.3933 11.1804L13.855 10.9884L13.3933 11.1804ZM13.4008 10.607L12.9109 10.5071L13.4008 10.607ZM13.4486 9.66823L12.9496 9.69868L13.4486 9.66823ZM13.5569 8.94772L13.0686 8.83989L13.5569 8.94772ZM13.6746 8.13909L13.1784 8.07752L13.6746 8.13909ZM13.9356 7.89693L13.8669 7.40168L13.9356 7.89693ZM14.7741 7.69076L14.459 7.30252L14.7741 7.69076ZM15.4855 7.0715L15.1419 6.70833L15.4855 7.0715ZM15.9899 6.83465L16.132 6.35527L15.9899 6.83465ZM17.1617 7.06311L17.1142 7.56085L17.1617 7.06311ZM17.4878 7.23391L17.1065 7.55739L17.4878 7.23391ZM17.7457 7.53791L18.127 7.21444L17.7457 7.53791ZM18.0477 7.79379L18.3051 7.36509L18.0477 7.79379ZM18.2208 7.89767L17.9635 8.32638L18.2208 7.89767ZM18.6728 8.27816L18.2465 8.53946L18.6728 8.27816ZM18.8846 8.62362L19.3109 8.36232L18.8846 8.62362ZM18.9799 9.00059L18.4806 8.97475L18.9799 9.00059ZM18.9588 9.40906L19.4581 9.4349L18.9588 9.40906ZM18.9394 9.69485L19.4365 9.74848L18.9394 9.69485ZM18.9306 9.7764L18.4335 9.72277L18.9306 9.7764ZM18.9218 9.85795L18.4247 9.80432L18.9218 9.85795ZM18.8311 10.1129L19.2832 10.3264L18.8311 10.1129ZM18.7492 10.2864L18.2971 10.0729L18.2152 10.2463L18.6673 10.4598L19.1194 10.6733L19.2013 10.4999L18.7492 10.2864ZM18.6673 10.4598L18.2152 10.2463C18.1155 10.4574 18.0872 10.6837 18.1227 10.9101L18.6167 10.8326L19.1107 10.7551C19.1045 10.7157 19.1099 10.6935 19.1194 10.6733L18.6673 10.4598ZM18.6167 10.8326L18.1227 10.9101L18.154 11.1095L18.648 11.032L19.1419 10.9545L19.1107 10.7551L18.6167 10.8326ZM18.648 11.032L18.154 11.1095L18.1853 11.3089L18.6793 11.2314L19.1732 11.1539L19.1419 10.9545L18.648 11.032ZM18.6793 11.2314L18.1853 11.3089C18.1931 11.3582 18.187 11.3901 18.1763 11.4164L18.6391 11.6055L19.102 11.7946C19.1865 11.5879 19.2072 11.3704 19.1732 11.1539L18.6793 11.2314ZM18.6391 11.6055L18.1763 11.4164L18.1049 11.5912L18.5677 11.7803L19.0306 11.9694L19.102 11.7946L18.6391 11.6055ZM18.5677 11.7803L18.1049 11.5912L18.0335 11.766L18.4963 11.9551L18.9592 12.1442L19.0306 11.9694L18.5677 11.7803ZM18.4963 11.9551L18.0335 11.766C17.9838 11.8875 17.9363 12.0095 17.8908 12.1319L18.3595 12.306L18.8283 12.4801C18.87 12.3677 18.9136 12.2558 18.9592 12.1442L18.4963 11.9551ZM18.3595 12.306L17.8908 12.1319L17.8254 12.308L18.2941 12.4821L18.7629 12.6561L18.8283 12.4801L18.3595 12.306ZM18.2941 12.4821L17.8254 12.308L17.76 12.4841L18.2287 12.6582L18.6975 12.8322L18.7629 12.6561L18.2941 12.4821ZM18.2287 12.6582L17.76 12.4841C17.7028 12.6383 17.6638 12.7985 17.6421 12.9638L18.1379 13.0288L18.6336 13.0937C18.646 12.9997 18.6675 12.9129 18.6975 12.8322L18.2287 12.6582ZM18.1379 13.0288L17.6421 12.9638L17.6166 13.1583L18.1124 13.2233L18.6082 13.2882L18.6336 13.0937L18.1379 13.0288ZM18.1124 13.2233L17.6166 13.1583L17.5912 13.3528L18.0869 13.4178L18.5827 13.4827L18.6082 13.2882L18.1124 13.2233ZM18.0869 13.4178L17.5912 13.3528C17.5908 13.3554 17.5906 13.3558 17.5909 13.3546C17.5913 13.3534 17.592 13.3519 17.5927 13.3506C17.5935 13.3493 17.5936 13.3493 17.5925 13.3507C17.5913 13.3521 17.5882 13.3555 17.5822 13.3605L17.9018 13.745L18.2215 14.1295C18.4185 13.9656 18.5483 13.745 18.5827 13.4827L18.0869 13.4178ZM17.9018 13.745L17.5822 13.3605L17.4225 13.4932L17.7422 13.8777L18.0618 14.2622L18.2215 14.1295L17.9018 13.745ZM17.7422 13.8777L17.4225 13.4932L17.2629 13.626L17.5825 14.0104L17.9022 14.3949L18.0618 14.2622L17.7422 13.8777ZM17.5825 14.0104L17.2629 13.626C17.0457 13.8065 16.9258 14.0545 16.9156 14.3347L17.4152 14.3529L17.9149 14.3711C17.915 14.3669 17.9154 14.3667 17.9148 14.3694C17.9141 14.3722 17.9127 14.3766 17.9101 14.3819C17.9076 14.3871 17.9048 14.3913 17.9026 14.3941C17.9004 14.3967 17.8998 14.3969 17.9022 14.3949L17.5825 14.0104ZM17.4152 14.3529L16.9156 14.3347L16.9079 14.5444L17.4076 14.5626L17.9073 14.5808L17.9149 14.3711L17.4152 14.3529ZM17.4076 14.5626L16.9079 14.5444L16.9003 14.7541L17.3999 14.7724L17.8996 14.7906L17.9073 14.5808L17.4076 14.5626ZM17.3999 14.7724L16.9003 14.7541C16.9 14.7627 16.8991 14.7678 16.8986 14.7701C16.8981 14.7724 16.8979 14.7726 16.8984 14.7714C16.8989 14.7702 16.8996 14.7688 16.9004 14.7677C16.9011 14.7666 16.9011 14.7669 16.8995 14.7685L17.254 15.1211L17.6085 15.4737C17.796 15.2852 17.8903 15.0465 17.8996 14.7906L17.3999 14.7724ZM17.254 15.1211L16.8995 14.7685L16.7612 14.9075L17.1157 15.2601L17.4702 15.6127L17.6085 15.4737L17.254 15.1211ZM17.1157 15.2601L16.7612 14.9075L16.623 15.0465L16.9774 15.3991L17.3319 15.7518L17.4702 15.6127L17.1157 15.2601ZM16.9774 15.3991L16.623 15.0465C16.5818 15.0879 16.5396 15.1138 16.4934 15.1302L16.6603 15.6015L16.8272 16.0728C17.0195 16.0047 17.1887 15.8957 17.3319 15.7518L16.9774 15.3991ZM16.6603 15.6015L16.4934 15.1302L16.3146 15.1935L16.4815 15.6648L16.6484 16.1361L16.8272 16.0728L16.6603 15.6015ZM16.4815 15.6648L16.3146 15.1935L16.1357 15.2568L16.3026 15.7282L16.4695 16.1995L16.6484 16.1361L16.4815 15.6648ZM16.3026 15.7282L16.1357 15.2568C16.1025 15.2686 16.1064 15.2627 16.1363 15.2618C16.1676 15.2609 16.2646 15.2654 16.3629 15.3431L16.0528 15.7354L15.7427 16.1276C15.8883 16.2427 16.0506 16.2647 16.1652 16.2614C16.2783 16.2582 16.3835 16.2299 16.4695 16.1995L16.3026 15.7282ZM16.0528 15.7354L16.3629 15.3431L16.2919 15.287L15.9818 15.6793L15.6717 16.0715L15.7427 16.1276L16.0528 15.7354ZM15.9818 15.6793L16.2919 15.287L16.2209 15.2309L15.9108 15.6231L15.6007 16.0154L15.6717 16.0715L15.9818 15.6793ZM15.9108 15.6231L16.2209 15.2309C16.1112 15.1442 15.9569 15.075 15.8207 15.0199L15.6331 15.4833L15.4454 15.9468C15.5066 15.9715 15.5509 15.9915 15.581 16.0067C15.5959 16.0142 15.6049 16.0193 15.6094 16.022C15.6145 16.0251 15.6103 16.023 15.6007 16.0154L15.9108 15.6231ZM15.6331 15.4833L15.8207 15.0199L15.6139 14.9361L15.4263 15.3996L15.2387 15.863L15.4454 15.9468L15.6331 15.4833ZM15.4263 15.3996L15.6139 14.9361L15.4072 14.8524L15.2195 15.3159L15.0319 15.7793L15.2387 15.863L15.4263 15.3996ZM15.2195 15.3159L15.4072 14.8524C15.4032 14.8508 15.4297 14.861 15.4574 14.8973C15.4866 14.9354 15.4939 14.9719 15.495 14.9855L14.9965 15.0245L14.498 15.0636C14.5099 15.2156 14.5599 15.3699 14.6634 15.5051C14.7655 15.6385 14.898 15.7251 15.0319 15.7793L15.2195 15.3159ZM14.9965 15.0245L15.495 14.9855L15.4787 14.7779L14.9803 14.8169L14.4818 14.8559L14.498 15.0636L14.9965 15.0245ZM14.9803 14.8169L15.4787 14.7779L15.4625 14.5703L14.964 14.6093L14.4655 14.6483L14.4818 14.8559L14.9803 14.8169ZM14.964 14.6093L15.4625 14.5703C15.4406 14.2903 15.3094 14.0494 15.0885 13.8781L14.7821 14.2732L14.4757 14.6683C14.479 14.6709 14.4791 14.6715 14.4775 14.6696C14.4758 14.6676 14.4732 14.6641 14.4707 14.6594C14.4681 14.6547 14.4666 14.6505 14.4657 14.6476C14.4649 14.6448 14.4653 14.6448 14.4655 14.6483L14.964 14.6093ZM14.7821 14.2732L15.0885 13.8781L14.9228 13.7496L14.6164 14.1447L14.31 14.5398L14.4757 14.6683L14.7821 14.2732ZM14.6164 14.1447L14.9228 13.7496L14.7572 13.6211L14.4508 14.0162L14.1444 14.4114L14.31 14.5398L14.6164 14.1447ZM14.4508 14.0162L14.7572 13.6211C14.742 13.6093 14.7375 13.6024 14.7372 13.6018C14.7368 13.6013 14.7368 13.6011 14.7367 13.601C14.7366 13.6008 14.7361 13.5996 14.7356 13.5968L14.2459 13.6979L13.7562 13.7991C13.8085 14.0522 13.948 14.2591 14.1444 14.4114L14.4508 14.0162ZM14.2459 13.6979L14.7356 13.5968L14.6964 13.4069L14.2067 13.5081L13.717 13.6092L13.7562 13.7991L14.2459 13.6979ZM14.2067 13.5081L14.6964 13.4069L14.6571 13.2171L14.1675 13.3182L13.6778 13.4194L13.717 13.6092L14.2067 13.5081ZM14.1675 13.3182L14.6571 13.2171C14.641 13.1391 14.6352 13.0534 14.6423 12.9583L14.1437 12.9212L13.645 12.8842C13.6316 13.0652 13.6416 13.2442 13.6778 13.4194L14.1675 13.3182ZM14.1437 12.9212L14.6423 12.9583L14.6577 12.7511L14.1591 12.7141L13.6604 12.677L13.645 12.8842L14.1437 12.9212ZM14.1591 12.7141L14.6577 12.7511L14.6731 12.5439L14.1745 12.5069L13.6758 12.4698L13.6604 12.677L14.1591 12.7141ZM14.1745 12.5069L14.6731 12.5439C14.6939 12.264 14.6006 12.0047 14.4034 11.8028L14.0458 12.1523L13.6882 12.5017C13.6901 12.5037 13.6892 12.5031 13.687 12.4998C13.6848 12.4963 13.6822 12.4913 13.68 12.4852C13.6778 12.4791 13.6767 12.4738 13.6762 12.4702C13.6757 12.4667 13.6761 12.4663 13.6758 12.4698L14.1745 12.5069ZM14.0458 12.1523L14.4034 11.8028L14.2593 11.6554L13.9017 12.0048L13.5441 12.3542L13.6882 12.5017L14.0458 12.1523ZM13.9017 12.0048L14.2593 11.6554L14.1152 11.5079L13.7576 11.8574L13.4 12.2068L13.5441 12.3542L13.9017 12.0048ZM13.7576 11.8574L14.1152 11.5079C14.06 11.4514 14.0245 11.396 14.0018 11.3414L13.5401 11.5334L13.0785 11.7254C13.1536 11.9061 13.2631 12.0667 13.4 12.2068L13.7576 11.8574ZM13.5401 11.5334L14.0018 11.3414L13.9284 11.1649L13.4667 11.3569L13.0051 11.5489L13.0785 11.7254L13.5401 11.5334ZM13.4667 11.3569L13.9284 11.1649L13.855 10.9884L13.3933 11.1804L12.9317 11.3724L13.0051 11.5489L13.4667 11.3569ZM13.3933 11.1804L13.855 10.9884C13.8468 10.9686 13.842 10.9458 13.8503 10.9053L13.3604 10.8054L12.8704 10.7056C12.8248 10.9297 12.842 11.1568 12.9317 11.3724L13.3933 11.1804ZM13.3604 10.8054L13.8503 10.9053L13.8907 10.7068L13.4008 10.607L12.9109 10.5071L12.8704 10.7056L13.3604 10.8054ZM13.4008 10.607L13.8907 10.7068L13.9312 10.5083L13.4412 10.4085L12.9513 10.3086L12.9109 10.5071L13.4008 10.607ZM13.4412 10.4085L13.9312 10.5083C13.9658 10.3382 13.98 10.1678 13.9697 9.99896L13.4707 10.0294L12.9716 10.0599C12.976 10.1318 12.9706 10.2141 12.9513 10.3086L13.4412 10.4085ZM13.4707 10.0294L13.9697 9.99896L13.9587 9.81838L13.4597 9.84882L12.9606 9.87926L12.9716 10.0599L13.4707 10.0294ZM13.4597 9.84882L13.9587 9.81838L13.9477 9.63779L13.4486 9.66823L12.9496 9.69868L12.9606 9.87926L13.4597 9.84882ZM13.4486 9.66823L13.9477 9.63779C13.9432 9.56464 13.9489 9.49098 13.9656 9.4155L13.4774 9.30767L12.9891 9.19984C12.9528 9.36433 12.9393 9.53105 12.9496 9.69868L13.4486 9.66823ZM13.4774 9.30767L13.9656 9.4155L14.0054 9.23552L13.5171 9.12769L13.0289 9.01987L12.9891 9.19984L13.4774 9.30767ZM13.5171 9.12769L14.0054 9.23552L14.0451 9.05554L13.5569 8.94772L13.0686 8.83989L13.0289 9.01987L13.5171 9.12769ZM13.5569 8.94772L14.0451 9.05554C14.0754 8.91827 14.0998 8.77281 14.1188 8.61976L13.6226 8.55819L13.1264 8.49662C13.1107 8.62297 13.0913 8.7372 13.0686 8.83989L13.5569 8.94772ZM13.6226 8.55819L14.1188 8.61976L14.1448 8.41021L13.6486 8.34864L13.1524 8.28707L13.1264 8.49662L13.6226 8.55819ZM13.6486 8.34864L14.1448 8.41021L14.1708 8.20066L13.6746 8.13909L13.1784 8.07752L13.1524 8.28707L13.6486 8.34864ZM13.6746 8.13909L14.1708 8.20066C14.1678 8.22488 14.1512 8.28622 14.0929 8.3403C14.04 8.38946 13.9942 8.39359 14.0043 8.39219L13.9356 7.89693L13.8669 7.40168C13.7203 7.42201 13.5527 7.47737 13.4128 7.60725C13.2675 7.74205 13.1988 7.9136 13.1784 8.07752L13.6746 8.13909ZM13.9356 7.89693L14.0043 8.39219L14.2393 8.35958L14.1706 7.86433L14.1019 7.36907L13.8669 7.40168L13.9356 7.89693ZM14.1706 7.86433L14.2393 8.35958L14.4743 8.32698L14.4056 7.83173L14.3368 7.33647L14.1019 7.36907L14.1706 7.86433ZM14.4056 7.83173L14.4743 8.32698C14.6884 8.29727 14.9073 8.22655 15.0891 8.07901L14.7741 7.69076L14.459 7.30252C14.4628 7.29945 14.4361 7.3227 14.3368 7.33647L14.4056 7.83173ZM14.7741 7.69076L15.0891 8.07901L15.2227 7.97065L14.9076 7.58241L14.5925 7.19417L14.459 7.30252L14.7741 7.69076ZM14.9076 7.58241L15.2227 7.97065L15.3562 7.8623L15.0411 7.47405L14.726 7.08581L14.5925 7.19417L14.9076 7.58241ZM15.0411 7.47405L15.3562 7.8623C15.4571 7.78042 15.563 7.68655 15.6737 7.58177L15.3301 7.2186L14.9864 6.85542C14.8899 6.94678 14.8032 7.02321 14.726 7.08581L15.0411 7.47405ZM15.3301 7.2186L15.6737 7.58177L15.8292 7.43467L15.4855 7.0715L15.1419 6.70833L14.9864 6.85542L15.3301 7.2186ZM15.4855 7.0715L15.8292 7.43467L15.9846 7.28758L15.641 6.9244L15.2973 6.56123L15.1419 6.70833L15.4855 7.0715ZM15.641 6.9244L15.9846 7.28758C15.9865 7.28585 15.9686 7.30284 15.9305 7.31265C15.8907 7.32288 15.8594 7.31748 15.8478 7.31403L15.9899 6.83465L16.132 6.35527C15.8196 6.26268 15.5209 6.34963 15.2973 6.56123L15.641 6.9244ZM15.9899 6.83465L15.8478 7.31403L16.0412 7.37138L16.1834 6.892L16.3255 6.41262L16.132 6.35527L15.9899 6.83465ZM16.1834 6.892L16.0412 7.37138L16.2347 7.42873L16.3768 6.94935L16.5189 6.46997L16.3255 6.41262L16.1834 6.892ZM16.3768 6.94935L16.2347 7.42873C16.394 7.47594 16.5558 7.50759 16.7199 7.52324L16.7674 7.0255L16.8149 6.52776C16.7161 6.51834 16.6176 6.49922 16.5189 6.46997L16.3768 6.94935ZM16.7674 7.0255L16.7199 7.52324L16.9171 7.54205L16.9646 7.04431L17.012 6.54657L16.8149 6.52776L16.7674 7.0255ZM16.9646 7.04431L16.9171 7.54205L17.1142 7.56085L17.1617 7.06311L17.2092 6.56537L17.012 6.54657L16.9646 7.04431ZM17.1617 7.06311L17.1142 7.56085C17.1178 7.5612 17.1185 7.56157 17.1171 7.56114C17.1155 7.56069 17.1129 7.55973 17.1098 7.55813C17.1067 7.55654 17.1046 7.55501 17.1036 7.5542C17.1027 7.55345 17.1038 7.55415 17.1065 7.55739L17.4878 7.23391L17.8691 6.91044C17.6994 6.71047 17.4713 6.59037 17.2092 6.56537L17.1617 7.06311ZM17.4878 7.23391L17.1065 7.55739L17.2355 7.70939L17.6168 7.38591L17.998 7.06244L17.8691 6.91044L17.4878 7.23391ZM17.6168 7.38591L17.2355 7.70939L17.3644 7.86139L17.7457 7.53791L18.127 7.21444L17.998 7.06244L17.6168 7.38591ZM17.7457 7.53791L17.3644 7.86139C17.4862 8.00486 17.6289 8.12553 17.7904 8.2225L18.0477 7.79379L18.3051 7.36509C18.2359 7.32356 18.1772 7.27364 18.127 7.21444L17.7457 7.53791ZM18.0477 7.79379L17.7904 8.2225L17.9635 8.32638L18.2208 7.89767L18.4781 7.46897L18.3051 7.36509L18.0477 7.79379ZM18.2208 7.89767L17.9635 8.32638L18.1366 8.43025L18.3939 8.00155L18.6512 7.57285L18.4781 7.46897L18.2208 7.89767ZM18.3939 8.00155L18.1366 8.43025C18.1827 8.45795 18.2178 8.49262 18.2465 8.53946L18.6728 8.27816L19.0991 8.01685C18.9866 7.83339 18.8358 7.68365 18.6512 7.57285L18.3939 8.00155ZM18.6728 8.27816L18.2465 8.53946L18.3524 8.7122L18.7787 8.45089L19.205 8.18959L19.0991 8.01685L18.6728 8.27816ZM18.7787 8.45089L18.3524 8.7122L18.4583 8.88493L18.8846 8.62362L19.3109 8.36232L19.205 8.18959L18.7787 8.45089ZM18.8846 8.62362L18.4583 8.88493C18.4756 8.91308 18.4824 8.93847 18.4806 8.97475L18.9799 9.00059L19.4792 9.02643C19.4914 8.79039 19.4348 8.56447 19.3109 8.36232L18.8846 8.62362ZM18.9799 9.00059L18.4806 8.97475L18.47 9.17899L18.9693 9.20483L19.4687 9.23067L19.4792 9.02643L18.9799 9.00059ZM18.9693 9.20483L18.47 9.17899L18.4594 9.38322L18.9588 9.40906L19.4581 9.4349L19.4687 9.23067L18.9693 9.20483ZM18.9588 9.40906L18.4594 9.38322C18.4524 9.51974 18.4465 9.60231 18.4423 9.64122L18.9394 9.69485L19.4365 9.74848C19.444 9.67866 19.4511 9.57071 19.4581 9.4349L18.9588 9.40906ZM18.9394 9.69485L18.4423 9.64122L18.4335 9.72277L18.9306 9.7764L19.4277 9.83003L19.4365 9.74848L18.9394 9.69485ZM18.9306 9.7764L18.4335 9.72277L18.4247 9.80432L18.9218 9.85795L19.4189 9.91158L19.4277 9.83003L18.9306 9.7764ZM18.9218 9.85795L18.4247 9.80432C18.4256 9.79545 18.4268 9.78893 18.4275 9.78513C18.4282 9.78127 18.4288 9.77919 18.4288 9.7791C18.4288 9.77898 18.4285 9.78025 18.4276 9.78306C18.4268 9.78584 18.4255 9.78977 18.4236 9.79492C18.4158 9.81686 18.4019 9.85099 18.379 9.89945L18.8311 10.1129L19.2832 10.3264C19.3383 10.2098 19.4032 10.0576 19.4189 9.91158L18.9218 9.85795ZM18.8311 10.1129L18.379 9.89945L18.2971 10.0729L18.7492 10.2864L19.2013 10.4999L19.2832 10.3264L18.8311 10.1129Z"
          fill="white"/>
    <path d="M18.913 24.2653C18.913 22.6294 16.8478 18.1296 16.125 18.1296C15.4021 18.1296 13.3369 22.6294 13.3369 24.2653C13.3369 25.9012 14.5852 27.2274 16.125 27.2274C17.6648 27.2274 18.913 25.9012 18.913 24.2653Z"
          fill="white"/>
    <path d="M18.9769 23.6804L18.4798 23.6262L18.9769 23.6804ZM18.8825 23.3207L18.4733 23.608L18.8825 23.3207ZM18.7668 23.1559L19.176 22.8686L18.7668 23.1559ZM18.6511 22.9911L18.2419 23.2784L18.6511 22.9911ZM18.58 22.2174L18.0813 22.1808L18.58 22.2174ZM18.5435 21.8306L19.025 21.6959L18.5435 21.8306ZM18.4921 21.6469L18.0105 21.7816L18.4921 21.6469ZM18.2995 21.1112L18.7407 20.8758L18.2995 21.1112ZM18.12 20.7748L17.6789 21.0101L18.12 20.7748ZM17.9415 20.4388L17.4996 20.6727L17.9415 20.4388ZM17.764 20.1034L18.2059 19.8695L17.764 20.1034ZM17.5382 19.7951L17.1802 20.1442L17.5382 19.7951ZM17.2641 19.5141L16.9061 19.8632L17.2641 19.5141ZM16.9842 19.2467L16.6523 19.6207L16.9842 19.2467ZM16.6983 18.9931L17.0301 18.6191L16.6983 18.9931ZM16.5053 18.65L16.9924 18.5372L16.5053 18.65ZM16.4553 18.4337L15.9681 18.5464L16.4553 18.4337ZM16.181 18.1232L15.8939 17.7139L16.181 18.1232ZM15.8328 18.3674L15.5457 17.9581L15.8328 18.3674ZM15.5172 18.6225L15.1749 18.258L15.5172 18.6225ZM15.2342 18.8882L15.5764 19.2527L15.2342 18.8882ZM15.0475 19.4264L15.5444 19.4818L15.0475 19.4264ZM15.0249 19.6291L14.528 19.5737L15.0249 19.6291ZM14.9342 20.005L15.3995 20.188L14.9342 20.005ZM14.7979 20.3515L15.2631 20.5345L14.7979 20.3515ZM14.6714 20.7014L15.1463 20.858L14.6714 20.7014ZM14.6132 20.8781L14.1383 20.7215L14.6132 20.8781ZM14.5549 21.0548L14.0801 20.8982L14.5549 21.0548ZM14.2961 21.3534L14.5558 21.7807L14.2961 21.3534ZM13.895 21.5973L13.6352 21.17L13.895 21.5973ZM13.7638 21.942L13.2865 22.0908L13.7638 21.942ZM13.9027 22.3877L14.3801 22.2389L13.9027 22.3877ZM13.8817 22.7762L13.4428 22.5365L13.8817 22.7762ZM13.7912 22.9418L13.3524 22.7022L13.7912 22.9418ZM13.7007 23.1075L14.1396 23.3471L13.7007 23.1075ZM13.3903 24.5188L12.9542 24.7634L13.3903 24.5188ZM13.4364 25.3105L12.9389 25.2607L13.4364 25.3105ZM13.575 25.637L13.2643 26.0288L13.575 25.637ZM13.8924 25.8888L14.2031 25.497L13.8924 25.8888ZM14.6667 26.6793L15.0277 26.3334L14.6667 26.6793ZM14.7999 26.8184L14.4389 27.1643L14.7999 26.8184ZM15.2624 27.0611L15.1738 26.569L15.2624 27.0611ZM16.0366 27.0512L15.8072 27.4954L16.0366 27.0512ZM16.2225 27.1472L15.993 27.5914L16.2225 27.1472ZM16.4084 27.2432L16.6378 26.799L16.4084 27.2432ZM18.066 26.4367L17.754 26.046L18.066 26.4367ZM18.2188 26.3147L17.9068 25.924L18.2188 26.3147ZM18.3716 26.1928L18.6835 26.5835L18.3716 26.1928ZM18.6352 25.9032L18.2181 25.6274L18.6352 25.9032ZM18.8569 25.568L19.2739 25.8438L18.8569 25.568ZM19.0063 25.2026L19.4971 25.2983L19.0063 25.2026ZM19.0449 25.0048L18.5542 24.909L19.0449 25.0048ZM19.0835 24.807L18.5928 24.7112L19.0835 24.807ZM19.0698 24.5232L18.6427 24.783L19.0698 24.5232ZM18.9653 24.3513L19.3925 24.0915L18.9653 24.3513ZM18.9343 24.0704L18.4373 24.0161L18.9343 24.0704ZM18.9556 23.8754L18.4585 23.8211L18.4798 23.6262L18.9769 23.6804L19.4739 23.7347L19.4526 23.9297L18.9556 23.8754ZM18.9769 23.6804L18.4798 23.6262C18.4803 23.6218 18.4802 23.6197 18.4802 23.6193C18.4801 23.619 18.4801 23.6193 18.4803 23.6199C18.4805 23.6205 18.4804 23.6202 18.4797 23.6186C18.479 23.617 18.4771 23.6135 18.4733 23.608L18.8825 23.3207L19.2917 23.0334C19.4366 23.2398 19.5017 23.4805 19.4739 23.7347L18.9769 23.6804ZM18.8825 23.3207L18.4733 23.608L18.3576 23.4432L18.7668 23.1559L19.176 22.8686L19.2917 23.0334L18.8825 23.3207ZM18.7668 23.1559L18.3576 23.4432L18.2419 23.2784L18.6511 22.9911L19.0603 22.7038L19.176 22.8686L18.7668 23.1559ZM18.6511 22.9911L18.2419 23.2784C18.0977 23.073 18.0333 22.8358 18.0516 22.5868L18.5502 22.6233L19.0489 22.6598C19.0473 22.6815 19.0502 22.6894 19.0603 22.7038L18.6511 22.9911ZM18.5502 22.6233L18.0516 22.5868L18.0665 22.3838L18.5651 22.4203L19.0638 22.4569L19.0489 22.6598L18.5502 22.6233ZM18.5651 22.4203L18.0665 22.3838L18.0813 22.1808L18.58 22.2174L19.0787 22.2539L19.0638 22.4569L18.5651 22.4203ZM18.58 22.2174L18.0813 22.1808C18.0873 22.0993 18.0796 22.0286 18.0619 21.9653L18.5435 21.8306L19.025 21.6959C19.0758 21.8777 19.0925 22.0648 19.0787 22.2539L18.58 22.2174ZM18.5435 21.8306L18.0619 21.9653L18.0105 21.7816L18.4921 21.6469L18.9736 21.5122L19.025 21.6959L18.5435 21.8306ZM18.4921 21.6469L18.0105 21.7816L17.9591 21.5978L18.4406 21.4631L18.9222 21.3284L18.9736 21.5122L18.4921 21.6469ZM18.4406 21.4631L17.9591 21.5978C17.9346 21.5102 17.9011 21.4266 17.8584 21.3465L18.2995 21.1112L18.7407 20.8758C18.8176 21.02 18.8781 21.171 18.9222 21.3284L18.4406 21.4631ZM18.2995 21.1112L17.8584 21.3465L17.7686 21.1783L18.2098 20.943L18.6509 20.7076L18.7407 20.8758L18.2995 21.1112ZM18.2098 20.943L17.7686 21.1783L17.6789 21.0101L18.12 20.7748L18.5612 20.5394L18.6509 20.7076L18.2098 20.943ZM18.12 20.7748L17.6789 21.0101C17.6188 20.8975 17.5591 20.785 17.4996 20.6727L17.9415 20.4388L18.3834 20.2049C18.4424 20.3163 18.5016 20.4278 18.5612 20.5394L18.12 20.7748ZM17.9415 20.4388L17.4996 20.6727L17.4108 20.505L17.8528 20.2711L18.2947 20.0372L18.3834 20.2049L17.9415 20.4388ZM17.8528 20.2711L17.4108 20.505L17.3221 20.3373L17.764 20.1034L18.2059 19.8695L18.2947 20.0372L17.8528 20.2711ZM17.764 20.1034L17.3221 20.3373C17.286 20.2691 17.2394 20.2049 17.1802 20.1442L17.5382 19.7951L17.8962 19.4461C18.0197 19.5727 18.1236 19.714 18.2059 19.8695L17.764 20.1034ZM17.5382 19.7951L17.1802 20.1442L17.0432 20.0037L17.4011 19.6546L17.7591 19.3055L17.8962 19.4461L17.5382 19.7951ZM17.4011 19.6546L17.0432 20.0037L16.9061 19.8632L17.2641 19.5141L17.6221 19.165L17.7591 19.3055L17.4011 19.6546ZM17.2641 19.5141L16.9061 19.8632C16.823 19.7779 16.7383 19.6971 16.6523 19.6207L16.9842 19.2467L17.316 18.8727C17.4205 18.9655 17.5226 19.0629 17.6221 19.165L17.2641 19.5141ZM16.9842 19.2467L16.6523 19.6207L16.5094 19.4939L16.8412 19.1199L17.1731 18.7459L17.316 18.8727L16.9842 19.2467ZM16.8412 19.1199L16.5094 19.4939L16.3664 19.3671L16.6983 18.9931L17.0301 18.6191L17.1731 18.7459L16.8412 19.1199ZM16.6983 18.9931L16.3664 19.3671C16.1815 19.203 16.071 18.9911 16.0182 18.7627L16.5053 18.65L16.9924 18.5372C17.0063 18.5972 17.0245 18.6141 17.0301 18.6191L16.6983 18.9931ZM16.5053 18.65L16.0182 18.7627L15.9681 18.5464L16.4553 18.4337L16.9424 18.321L16.9924 18.5372L16.5053 18.65ZM16.4553 18.4337L15.9681 18.5464L15.9181 18.3301L16.4052 18.2174L16.8923 18.1047L16.9424 18.321L16.4553 18.4337ZM16.4052 18.2174L15.9181 18.3301C15.9181 18.3301 15.9181 18.3301 15.9181 18.3301C15.9181 18.3301 15.9181 18.3302 15.9181 18.3302C15.9181 18.3302 15.9181 18.3303 15.9181 18.3303C15.9182 18.3305 15.9182 18.3307 15.9183 18.331C15.9184 18.3316 15.9187 18.3325 15.9191 18.3337C15.9198 18.3361 15.921 18.3399 15.9229 18.3449C15.9265 18.3545 15.9337 18.3715 15.9466 18.3925C15.9729 18.4352 16.0296 18.5043 16.1305 18.5467C16.2337 18.59 16.3283 18.5824 16.3871 18.567C16.4399 18.5531 16.468 18.5327 16.4682 18.5326L16.181 18.1232L15.8939 17.7139C15.9873 17.6484 16.2316 17.5045 16.5178 17.6247C16.7905 17.7393 16.868 17.9997 16.8923 18.1047L16.4052 18.2174ZM16.181 18.1232L16.4682 18.5326L16.2941 18.6547L16.0069 18.2453L15.7198 17.836L15.8939 17.7139L16.181 18.1232ZM16.0069 18.2453L16.2941 18.6547L16.1199 18.7768L15.8328 18.3674L15.5457 17.9581L15.7198 17.836L16.0069 18.2453ZM15.8328 18.3674L16.1199 18.7768C16.0215 18.8459 15.935 18.916 15.8595 18.9869L15.5172 18.6225L15.1749 18.258C15.2881 18.1517 15.412 18.0519 15.5457 17.9581L15.8328 18.3674ZM15.5172 18.6225L15.8595 18.9869L15.718 19.1198L15.3757 18.7554L15.0334 18.3909L15.1749 18.258L15.5172 18.6225ZM15.3757 18.7554L15.718 19.1198L15.5764 19.2527L15.2342 18.8882L14.8919 18.5238L15.0334 18.3909L15.3757 18.7554ZM15.2342 18.8882L15.5764 19.2527C15.5736 19.2554 15.5724 19.2569 15.5721 19.2574C15.5717 19.2578 15.5717 19.258 15.5715 19.2582C15.5714 19.2585 15.5708 19.2598 15.57 19.2627C15.5691 19.2657 15.5679 19.271 15.567 19.2791L15.0701 19.2238L14.5731 19.1684C14.6006 18.9216 14.7063 18.6981 14.8919 18.5238L15.2342 18.8882ZM15.0701 19.2238L15.567 19.2791L15.5444 19.4818L15.0475 19.4264L14.5506 19.3711L14.5731 19.1684L15.0701 19.2238ZM15.0475 19.4264L15.5444 19.4818L15.5219 19.6844L15.0249 19.6291L14.528 19.5737L14.5506 19.3711L15.0475 19.4264ZM15.0249 19.6291L15.5219 19.6844C15.5024 19.8592 15.4625 20.0278 15.3995 20.188L14.9342 20.005L14.4689 19.8219C14.4968 19.7511 14.5174 19.6691 14.528 19.5737L15.0249 19.6291ZM14.9342 20.005L15.3995 20.188L15.3313 20.3613L14.866 20.1782L14.4007 19.9952L14.4689 19.8219L14.9342 20.005ZM14.866 20.1782L15.3313 20.3613L15.2631 20.5345L14.7979 20.3515L14.3326 20.1684L14.4007 19.9952L14.866 20.1782ZM14.7979 20.3515L15.2631 20.5345C15.2211 20.6413 15.1822 20.7491 15.1463 20.858L14.6714 20.7014L14.1966 20.5448C14.2384 20.4181 14.2837 20.2926 14.3326 20.1684L14.7979 20.3515ZM14.6714 20.7014L15.1463 20.858L15.088 21.0347L14.6132 20.8781L14.1383 20.7215L14.1966 20.5448L14.6714 20.7014ZM14.6132 20.8781L15.088 21.0347L15.0298 21.2114L14.5549 21.0548L14.0801 20.8982L14.1383 20.7215L14.6132 20.8781ZM14.5549 21.0548L15.0298 21.2114C14.9448 21.4692 14.7638 21.6542 14.5558 21.7807L14.2961 21.3534L14.0364 20.9262C14.067 20.9076 14.0798 20.8944 14.0833 20.8903C14.0858 20.8874 14.0826 20.8905 14.0801 20.8982L14.5549 21.0548ZM14.2961 21.3534L14.5558 21.7807L14.3553 21.9026L14.0955 21.4754L13.8358 21.0481L14.0364 20.9262L14.2961 21.3534ZM14.0955 21.4754L14.3553 21.9026L14.1547 22.0245L13.895 21.5973L13.6352 21.17L13.8358 21.0481L14.0955 21.4754ZM13.895 21.5973L14.1547 22.0245C14.1566 22.0234 14.2019 21.9942 14.2292 21.9222C14.2567 21.8499 14.2424 21.7971 14.2412 21.7933L13.7638 21.942L13.2865 22.0908C13.239 21.9385 13.2233 21.7539 13.2946 21.5667C13.3656 21.3798 13.4996 21.2525 13.6352 21.17L13.895 21.5973ZM13.7638 21.942L14.2412 21.7933L14.3106 22.0161L13.8333 22.1649L13.3559 22.3136L13.2865 22.0908L13.7638 21.942ZM13.8333 22.1649L14.3106 22.0161L14.3801 22.2389L13.9027 22.3877L13.4253 22.5364L13.3559 22.3136L13.8333 22.1649ZM13.9027 22.3877L14.3801 22.2389C14.4565 22.4842 14.4605 22.7595 14.3205 23.0158L13.8817 22.7762L13.4428 22.5365C13.44 22.5417 13.4374 22.548 13.4355 22.5547C13.4336 22.5614 13.433 22.5665 13.4329 22.5692C13.4326 22.5744 13.4342 22.565 13.4253 22.5364L13.9027 22.3877ZM13.8817 22.7762L14.3205 23.0158L14.23 23.1815L13.7912 22.9418L13.3524 22.7022L13.4428 22.5365L13.8817 22.7762ZM13.7912 22.9418L14.23 23.1815L14.1396 23.3471L13.7007 23.1075L13.2619 22.8678L13.3524 22.7022L13.7912 22.9418ZM13.7007 23.1075L14.1396 23.3471C14.0636 23.4862 13.9718 23.6217 13.8666 23.7539L13.4755 23.4423L13.0844 23.1308C13.1589 23.0373 13.2172 22.9496 13.2619 22.8678L13.7007 23.1075ZM13.4755 23.4423L13.8666 23.7539L13.7318 23.9231L13.3407 23.6115L12.9496 23.3L13.0844 23.1308L13.4755 23.4423ZM13.3407 23.6115L13.7318 23.9231L13.597 24.0922L13.2059 23.7807L12.8149 23.4692L12.9496 23.3L13.3407 23.6115ZM13.2059 23.7807L13.597 24.0922C13.6014 24.0867 13.6253 24.0526 13.6299 23.9945C13.6345 23.9365 13.6164 23.8999 13.6136 23.8949L13.1775 24.1395L12.7414 24.3841C12.6677 24.2527 12.6189 24.0931 12.633 23.9156C12.6471 23.7378 12.7205 23.5875 12.8149 23.4692L13.2059 23.7807ZM13.1775 24.1395L13.6136 23.8949L13.72 24.0846L13.2839 24.3292L12.8478 24.5738L12.7414 24.3841L13.1775 24.1395ZM13.2839 24.3292L13.72 24.0846L13.8264 24.2742L13.3903 24.5188L12.9542 24.7634L12.8478 24.5738L13.2839 24.3292ZM13.3903 24.5188L13.8264 24.2742C13.9434 24.4828 13.9985 24.715 13.9741 24.959L13.4766 24.9092L12.9791 24.8593C12.9814 24.8358 12.979 24.8077 12.9542 24.7634L13.3903 24.5188ZM13.4766 24.9092L13.9741 24.959L13.954 25.1596L13.4565 25.1098L12.959 25.06L12.9791 24.8593L13.4766 24.9092ZM13.4565 25.1098L13.954 25.1596L13.9339 25.3603L13.4364 25.3105L12.9389 25.2607L12.959 25.06L13.4565 25.1098ZM13.4364 25.3105L13.9339 25.3603C13.9344 25.3552 13.9352 25.33 13.9212 25.2971C13.9073 25.2642 13.8888 25.2478 13.8857 25.2453L13.575 25.637L13.2643 26.0288C13.0258 25.8396 12.9084 25.5648 12.9389 25.2607L13.4364 25.3105ZM13.575 25.637L13.8857 25.2453L14.0444 25.3711L13.7337 25.7629L13.423 26.1546L13.2643 26.0288L13.575 25.637ZM13.7337 25.7629L14.0444 25.3711L14.2031 25.497L13.8924 25.8888L13.5817 26.2805L13.423 26.1546L13.7337 25.7629ZM13.8924 25.8888L14.2031 25.497C14.3268 25.5951 14.4398 25.6986 14.5401 25.808L14.1717 26.146L13.8033 26.4841C13.7429 26.4183 13.6696 26.3502 13.5817 26.2805L13.8924 25.8888ZM14.1717 26.146L14.5401 25.808L14.6607 25.9394L14.2923 26.2775L13.9239 26.6155L13.8033 26.4841L14.1717 26.146ZM14.2923 26.2775L14.6607 25.9394L14.7813 26.0709L14.4129 26.4089L14.0445 26.7469L13.9239 26.6155L14.2923 26.2775ZM14.4129 26.4089L14.7813 26.0709C14.8591 26.1556 14.9412 26.2431 15.0277 26.3334L14.6667 26.6793L14.3057 27.0253C14.2146 26.9302 14.1275 26.8374 14.0445 26.7469L14.4129 26.4089ZM14.6667 26.6793L15.0277 26.3334L15.1609 26.4724L14.7999 26.8184L14.4389 27.1643L14.3057 27.0253L14.6667 26.6793ZM14.7999 26.8184L15.1609 26.4724L15.2941 26.6114L14.9331 26.9574L14.5721 27.3033L14.4389 27.1643L14.7999 26.8184ZM14.9331 26.9574L15.2941 26.6114C15.2872 26.6042 15.2665 26.5867 15.2323 26.5759C15.1988 26.5654 15.1758 26.5687 15.1738 26.569L15.2624 27.0611L15.351 27.5532C15.0623 27.6052 14.7816 27.5219 14.5721 27.3033L14.9331 26.9574ZM15.2624 27.0611L15.1738 26.569L15.37 26.5337L15.4586 27.0258L15.5471 27.5179L15.351 27.5532L15.2624 27.0611ZM15.4586 27.0258L15.37 26.5337L15.5661 26.4984L15.6547 26.9905L15.7433 27.4826L15.5471 27.5179L15.4586 27.0258ZM15.6547 26.9905L15.5661 26.4984C15.8109 26.4543 16.0496 26.4951 16.2661 26.6069L16.0366 27.0512L15.8072 27.4954C15.7759 27.4792 15.7599 27.4796 15.7433 27.4826L15.6547 26.9905ZM16.0366 27.0512L16.2661 26.6069L16.452 26.7029L16.2225 27.1472L15.993 27.5914L15.8072 27.4954L16.0366 27.0512ZM16.2225 27.1472L16.452 26.7029L16.6378 26.799L16.4084 27.2432L16.1789 27.6874L15.993 27.5914L16.2225 27.1472ZM16.4084 27.2432L16.6378 26.799C16.6719 26.8166 16.6981 26.8203 16.7301 26.8159L16.7981 27.3112L16.866 27.8066C16.6263 27.8395 16.3927 27.7978 16.1789 27.6874L16.4084 27.2432ZM16.7981 27.3112L16.7301 26.8159L16.9339 26.7879L17.0018 27.2833L17.0698 27.7786L16.866 27.8066L16.7981 27.3112ZM17.0018 27.2833L16.9339 26.7879L17.1377 26.76L17.2056 27.2553L17.2736 27.7507L17.0698 27.7786L17.0018 27.2833ZM17.2056 27.2553L17.1377 26.76C17.1417 26.7594 17.1427 26.7589 17.1415 26.7593C17.1402 26.7598 17.1379 26.7607 17.1353 26.7622C17.1328 26.7638 17.1313 26.7651 17.131 26.7653C17.1308 26.7655 17.1326 26.7639 17.136 26.7593L17.5354 27.0602L17.9347 27.3611C17.7722 27.5768 17.544 27.7136 17.2736 27.7507L17.2056 27.2553ZM17.5354 27.0602L17.136 26.7593L17.262 26.5921L17.6613 26.893L18.0607 27.1939L17.9347 27.3611L17.5354 27.0602ZM17.6613 26.893L17.262 26.5921L17.3879 26.425L17.7873 26.7259L18.1866 27.0267L18.0607 27.1939L17.6613 26.893ZM17.7873 26.7259L17.3879 26.425C17.4954 26.2824 17.6172 26.1552 17.754 26.046L18.066 26.4367L18.378 26.8275C18.3111 26.8808 18.2471 26.9464 18.1866 27.0267L17.7873 26.7259ZM18.066 26.4367L17.754 26.046L17.9068 25.924L18.2188 26.3147L18.5307 26.7055L18.378 26.8275L18.066 26.4367ZM18.2188 26.3147L17.9068 25.924L18.0596 25.802L18.3716 26.1928L18.6835 26.5835L18.5307 26.7055L18.2188 26.3147ZM18.3716 26.1928L18.0596 25.802C18.1195 25.7542 18.1722 25.6968 18.2181 25.6274L18.6352 25.9032L19.0522 26.179C18.9503 26.3331 18.8273 26.4687 18.6835 26.5835L18.3716 26.1928ZM18.6352 25.9032L18.2181 25.6274L18.329 25.4598L18.746 25.7356L19.1631 26.0114L19.0522 26.179L18.6352 25.9032ZM18.746 25.7356L18.329 25.4598L18.4398 25.2922L18.8569 25.568L19.2739 25.8438L19.1631 26.0114L18.746 25.7356ZM18.8569 25.568L18.4398 25.2922C18.4775 25.2352 18.5023 25.1746 18.5156 25.1068L19.0063 25.2026L19.4971 25.2983C19.4588 25.4943 19.384 25.6773 19.2739 25.8438L18.8569 25.568ZM19.0063 25.2026L18.5156 25.1068L18.5542 24.909L19.0449 25.0048L19.5357 25.1005L19.4971 25.2983L19.0063 25.2026ZM19.0449 25.0048L18.5542 24.909L18.5928 24.7112L19.0835 24.807L19.5743 24.9028L19.5357 25.1005L19.0449 25.0048ZM19.0835 24.807L18.5928 24.7112C18.6009 24.6697 18.5997 24.6555 18.6 24.6612C18.6002 24.6651 18.6011 24.6786 18.6063 24.6988C18.6116 24.7192 18.6221 24.7493 18.6427 24.783L19.0698 24.5232L19.497 24.2634C19.6364 24.4925 19.6034 24.7536 19.5743 24.9028L19.0835 24.807ZM19.0698 24.5232L18.6427 24.783L18.5904 24.6971L19.0176 24.4373L19.4448 24.1774L19.497 24.2634L19.0698 24.5232ZM19.0176 24.4373L18.5904 24.6971L18.5381 24.6111L18.9653 24.3513L19.3925 24.0915L19.4448 24.1774L19.0176 24.4373ZM18.9653 24.3513L18.5381 24.6111C18.4126 24.4047 18.4207 24.1673 18.4373 24.0161L18.9343 24.0704L19.4313 24.1247C19.4292 24.1445 19.4284 24.1593 19.4282 24.1697C19.428 24.1802 19.4285 24.1844 19.4284 24.1833C19.4283 24.1823 19.4272 24.1731 19.4227 24.1581C19.4182 24.143 19.4094 24.1193 19.3925 24.0915L18.9653 24.3513ZM18.9343 24.0704L18.4373 24.0161L18.4585 23.8211L18.9556 23.8754L19.4526 23.9297L19.4313 24.1247L18.9343 24.0704Z"
          fill="white"/>
    <path d="M23.2879 19.8904C21.652 19.8904 17.1522 17.8252 17.1522 17.1024C17.1522 16.3795 21.652 14.3143 23.2879 14.3143C24.9238 14.3143 26.25 15.5626 26.25 17.1024C26.25 18.6422 24.9238 19.8904 23.2879 19.8904Z"
          fill="white"/>
    <path d="M22.3634 19.7653L22.1289 20.2068L22.3634 19.7653ZM22.0239 19.585L22.2584 19.1434L22.0239 19.585ZM21.6866 19.4113L21.9097 18.9638L21.6866 19.4113ZM21.3513 19.2441L21.1282 19.6916L21.3513 19.2441ZM20.9644 19.2092L20.8561 18.7211L20.9644 19.2092ZM20.7451 19.2578L20.6369 18.7697L20.7451 19.2578ZM20.5259 19.3065L20.6342 19.7946L20.5259 19.3065ZM20.1305 19.2834L20.3191 18.8203L20.1305 19.2834ZM19.7782 19.1399L19.5896 19.603L19.7782 19.1399ZM19.4431 18.9602L19.1621 19.3737L19.4431 18.9602ZM19.2842 18.8522L19.0032 19.2658L19.2842 18.8522ZM19.1253 18.7442L19.4063 18.3307L19.1253 18.7442ZM18.8461 18.4642L19.2558 18.1776L18.8461 18.4642ZM18.7257 18.2922L18.316 18.5788L18.7257 18.2922ZM18.6054 18.1202L18.1957 18.4068L18.6054 18.1202ZM18.2684 17.9405L18.2507 18.4402L18.2684 17.9405ZM17.835 17.9251L17.8527 17.4255L17.835 17.9251ZM17.5105 17.7483L17.9323 17.4797L17.5105 17.7483ZM17.295 17.4099L16.8733 17.6785L17.295 17.4099ZM17.2238 17.0351L17.7161 17.1226L17.2238 17.0351ZM17.297 16.6237L16.8047 16.5362L17.297 16.6237ZM17.5685 16.4256L17.5847 15.9259L17.5685 16.4256ZM17.8035 16.4332L17.8197 15.9335L17.8035 16.4332ZM18.0384 16.4409L18.0222 16.9406L18.0384 16.4409ZM18.4757 16.0454L18.0288 15.8211L18.4757 16.0454ZM19.324 15.6782L19.3517 15.1789L19.324 15.6782ZM19.6883 15.5655L19.3676 15.182L19.6883 15.5655ZM19.8373 15.4409L20.1581 15.8245L19.8373 15.4409ZM19.9863 15.3163L19.6655 14.9328L19.9863 15.3163ZM20.7249 15.1609L20.6987 14.6615L20.7249 15.1609ZM21.0688 15.0056L21.4194 15.3622L21.0688 15.0056ZM21.2162 14.8607L20.8657 14.5042L21.2162 14.8607ZM21.3637 14.7158L21.0131 14.3593L21.3637 14.7158ZM22.1019 14.5928L22.1204 14.0931L22.1019 14.5928ZM23.3778 14.5084L23.3408 14.0098L23.3778 14.5084ZM23.9018 14.5308L23.7663 15.0121L23.9018 14.5308ZM24.0738 14.5792L24.2093 14.0979L24.0738 14.5792ZM24.6369 14.6777L24.6407 14.1777L24.6369 14.6777ZM25.4208 15.1031L25.8996 14.959L25.4208 15.1031ZM25.7008 15.649L26.0173 15.262L25.7008 15.649ZM25.8544 15.7746L26.1709 15.3876L25.8544 15.7746ZM26.008 15.9002L25.6914 16.2873L26.008 15.9002ZM26.2038 16.2163L26.6919 16.1081L26.2038 16.2163ZM26.2677 16.9716L25.7944 16.8104L26.2677 16.9716ZM26.205 17.1557L26.6782 17.3169L26.205 17.1557ZM25.936 18.428L26.2201 18.8394L25.936 18.428ZM25.7715 18.5415L25.4874 18.1301L25.7715 18.5415ZM25.6071 18.6551L25.323 18.2436L25.6071 18.6551ZM25.222 19.0667L25.6239 19.3642L25.222 19.0667ZM25.1117 19.2158L25.5136 19.5132L25.1117 19.2158ZM24.8558 19.5073L24.5061 19.1499L24.8558 19.5073ZM24.2112 19.8662L24.3674 19.3912L24.2112 19.8662ZM24.0032 19.7978L23.847 20.2728L24.0032 19.7978ZM23.7953 19.7294L23.9515 19.2544L23.7953 19.7294ZM23.5124 19.7183L23.2083 19.3215L23.5124 19.7183ZM23.3628 19.8331L23.6669 20.2299L23.3628 19.8331ZM23.0992 19.8817L23.1224 19.3822L23.0992 19.8817ZM22.9105 19.8729L22.9337 19.3734L22.745 19.3647L22.7218 19.8642L22.6987 20.3636L22.8873 20.3724L22.9105 19.8729ZM22.7218 19.8642L22.745 19.3647C22.6944 19.3623 22.6469 19.3497 22.5979 19.3237L22.3634 19.7653L22.1289 20.2068C22.3062 20.301 22.4977 20.3543 22.6987 20.3636L22.7218 19.8642ZM22.3634 19.7653L22.5979 19.3237L22.4282 19.2335L22.1937 19.6751L21.9592 20.1167L22.1289 20.2068L22.3634 19.7653ZM22.1937 19.6751L22.4282 19.2335L22.2584 19.1434L22.0239 19.585L21.7894 20.0266L21.9592 20.1167L22.1937 19.6751ZM22.0239 19.585L22.2584 19.1434C22.1416 19.0813 22.0253 19.0215 21.9097 18.9638L21.6866 19.4113L21.4635 19.8587C21.5713 19.9125 21.6799 19.9684 21.7894 20.0266L22.0239 19.585ZM21.6866 19.4113L21.9097 18.9638L21.742 18.8802L21.5189 19.3277L21.2959 19.7752L21.4635 19.8587L21.6866 19.4113ZM21.5189 19.3277L21.742 18.8802L21.5744 18.7967L21.3513 19.2441L21.1282 19.6916L21.2959 19.7752L21.5189 19.3277ZM21.3513 19.2441L21.5744 18.7967C21.3407 18.6802 21.091 18.669 20.8561 18.7211L20.9644 19.2092L21.0727 19.6973C21.1032 19.6906 21.1199 19.6911 21.1258 19.6916C21.1306 19.692 21.1301 19.6925 21.1282 19.6916L21.3513 19.2441ZM20.9644 19.2092L20.8561 18.7211L20.6369 18.7697L20.7451 19.2578L20.8534 19.746L21.0727 19.6973L20.9644 19.2092ZM20.7451 19.2578L20.6369 18.7697L20.4176 18.8184L20.5259 19.3065L20.6342 19.7946L20.8534 19.746L20.7451 19.2578ZM20.5259 19.3065L20.4176 18.8184C20.3522 18.8329 20.3263 18.8233 20.3191 18.8203L20.1305 19.2834L19.9419 19.7465C20.1695 19.8392 20.4072 19.845 20.6342 19.7946L20.5259 19.3065ZM20.1305 19.2834L20.3191 18.8203L20.1429 18.7486L19.9543 19.2117L19.7657 19.6747L19.9419 19.7465L20.1305 19.2834ZM19.9543 19.2117L20.1429 18.7486L19.9668 18.6768L19.7782 19.1399L19.5896 19.603L19.7657 19.6747L19.9543 19.2117ZM19.7782 19.1399L19.9668 18.6768C19.8821 18.6424 19.8014 18.5991 19.7241 18.5466L19.4431 18.9602L19.1621 19.3737C19.2967 19.4652 19.4393 19.5418 19.5896 19.603L19.7782 19.1399ZM19.4431 18.9602L19.7241 18.5466L19.5652 18.4387L19.2842 18.8522L19.0032 19.2658L19.1621 19.3737L19.4431 18.9602ZM19.2842 18.8522L19.5652 18.4387L19.4063 18.3307L19.1253 18.7442L18.8443 19.1578L19.0032 19.2658L19.2842 18.8522ZM19.1253 18.7442L19.4063 18.3307C19.3551 18.2959 19.3044 18.2472 19.2558 18.1776L18.8461 18.4642L18.4364 18.7508C18.5482 18.9107 18.6836 19.0486 18.8443 19.1578L19.1253 18.7442ZM18.8461 18.4642L19.2558 18.1776L19.1354 18.0056L18.7257 18.2922L18.316 18.5788L18.4364 18.7508L18.8461 18.4642ZM18.7257 18.2922L19.1354 18.0056L19.0151 17.8336L18.6054 18.1202L18.1957 18.4068L18.316 18.5788L18.7257 18.2922ZM18.6054 18.1202L19.0151 17.8336C18.8415 17.5854 18.5814 17.4512 18.2861 17.4408L18.2684 17.9405L18.2507 18.4402C18.2572 18.4404 18.2453 18.4409 18.2257 18.4304C18.2168 18.4257 18.2092 18.4201 18.2034 18.4149C18.1977 18.4097 18.1954 18.4064 18.1957 18.4068L18.6054 18.1202ZM18.2684 17.9405L18.2861 17.4408L18.0694 17.4331L18.0517 17.9328L18.034 18.4325L18.2507 18.4402L18.2684 17.9405ZM18.0517 17.9328L18.0694 17.4331L17.8527 17.4255L17.835 17.9251L17.8173 18.4248L18.034 18.4325L18.0517 17.9328ZM17.835 17.9251L17.8527 17.4255C17.8446 17.4252 17.8598 17.4245 17.8848 17.4381C17.9113 17.4525 17.9268 17.471 17.9323 17.4797L17.5105 17.7483L17.0888 18.0169C17.2572 18.2813 17.524 18.4145 17.8173 18.4248L17.835 17.9251ZM17.5105 17.7483L17.9323 17.4797L17.8245 17.3105L17.4028 17.5791L16.9811 17.8477L17.0888 18.0169L17.5105 17.7483ZM17.4028 17.5791L17.8245 17.3105L17.7168 17.1413L17.295 17.4099L16.8733 17.6785L16.9811 17.8477L17.4028 17.5791ZM17.295 17.4099L17.7168 17.1413C17.7157 17.1396 17.715 17.1384 17.7146 17.1377C17.7144 17.1373 17.7143 17.137 17.7142 17.1369C17.7141 17.1367 17.7141 17.1366 17.7141 17.1366C17.7141 17.1366 17.7141 17.1366 17.7142 17.1367C17.7142 17.1369 17.7142 17.137 17.7143 17.1372C17.7144 17.1376 17.7145 17.138 17.7146 17.1383C17.7147 17.1392 17.7146 17.1389 17.7146 17.1369C17.7146 17.1348 17.7148 17.1302 17.7161 17.1226L17.2238 17.0351L16.7316 16.9475C16.6863 17.2024 16.7311 17.4553 16.8733 17.6785L17.295 17.4099ZM17.2238 17.0351L17.7161 17.1226L17.7527 16.9169L17.2604 16.8294L16.7681 16.7419L16.7316 16.9475L17.2238 17.0351ZM17.2604 16.8294L17.7527 16.9169L17.7893 16.7112L17.297 16.6237L16.8047 16.5362L16.7681 16.7419L17.2604 16.8294ZM17.297 16.6237L17.7893 16.7112C17.7846 16.7372 17.7607 16.8148 17.6778 16.8753C17.6032 16.9297 17.5418 16.925 17.5523 16.9254L17.5685 16.4256L17.5847 15.9259C17.4386 15.9211 17.2536 15.9469 17.0885 16.0674C16.9151 16.1939 16.8337 16.3731 16.8047 16.5362L17.297 16.6237ZM17.5685 16.4256L17.5523 16.9254L17.7873 16.933L17.8035 16.4332L17.8197 15.9335L17.5847 15.9259L17.5685 16.4256ZM17.8035 16.4332L17.7873 16.933L18.0222 16.9406L18.0384 16.4409L18.0546 15.9411L17.8197 15.9335L17.8035 16.4332ZM18.0384 16.4409L18.0222 16.9406C18.1739 16.9455 18.3374 16.9172 18.4898 16.8293C18.6435 16.7406 18.7511 16.6113 18.8214 16.4713L18.3745 16.247L17.9277 16.0226C17.9305 16.017 17.9484 15.9871 17.9901 15.9631C18.0304 15.9398 18.0596 15.9413 18.0546 15.9411L18.0384 16.4409ZM18.3745 16.247L18.8214 16.4713L18.9226 16.2698L18.4757 16.0454L18.0288 15.8211L17.9277 16.0226L18.3745 16.247ZM18.4757 16.0454L18.9226 16.2698L19.0237 16.0682L18.5769 15.8439L18.13 15.6196L18.0288 15.8211L18.4757 16.0454ZM18.5769 15.8439L19.0237 16.0682C19.0244 16.067 19.0087 16.0977 18.9635 16.1247C18.9168 16.1527 18.8764 16.1542 18.8657 16.1536L18.8934 15.6543L18.921 15.1551C18.7667 15.1466 18.6018 15.1757 18.4496 15.2668C18.299 15.3571 18.1968 15.4865 18.13 15.6196L18.5769 15.8439ZM18.8934 15.6543L18.8657 16.1536L19.081 16.1655L19.1087 15.6663L19.1363 15.167L18.921 15.1551L18.8934 15.6543ZM19.1087 15.6663L19.081 16.1655L19.2964 16.1774L19.324 15.6782L19.3517 15.1789L19.1363 15.167L19.1087 15.6663ZM19.324 15.6782L19.2964 16.1774C19.5514 16.1915 19.8015 16.1227 20.0091 15.9491L19.6883 15.5655L19.3676 15.182C19.3671 15.1823 19.368 15.1816 19.37 15.1805C19.372 15.1794 19.3739 15.1787 19.375 15.1783C19.378 15.1774 19.3719 15.1801 19.3517 15.1789L19.324 15.6782ZM19.6883 15.5655L20.0091 15.9491L20.1581 15.8245L19.8373 15.4409L19.5165 15.0574L19.3676 15.182L19.6883 15.5655ZM19.8373 15.4409L20.1581 15.8245L20.307 15.6999L19.9863 15.3163L19.6655 14.9328L19.5165 15.0574L19.8373 15.4409ZM19.9863 15.3163L20.307 15.6999C20.3221 15.6873 20.3335 15.682 20.358 15.6808L20.3318 15.1814L20.3056 14.6821C20.068 14.6946 19.8491 14.7793 19.6655 14.9328L19.9863 15.3163ZM20.3318 15.1814L20.358 15.6808L20.5545 15.6705L20.5283 15.1712L20.5022 14.6718L20.3056 14.6821L20.3318 15.1814ZM20.5283 15.1712L20.5545 15.6705L20.7511 15.6602L20.7249 15.1609L20.6987 14.6615L20.5022 14.6718L20.5283 15.1712ZM20.7249 15.1609L20.7511 15.6602C21.0105 15.6466 21.2388 15.5397 21.4194 15.3622L21.0688 15.0056L20.7183 14.6491C20.7125 14.6548 20.7084 14.6579 20.7062 14.6594C20.7041 14.6609 20.7032 14.6613 20.7035 14.6612C20.7038 14.661 20.7041 14.6609 20.7041 14.6609C20.704 14.661 20.7024 14.6613 20.6987 14.6615L20.7249 15.1609ZM21.0688 15.0056L21.4194 15.3622L21.5668 15.2173L21.2162 14.8607L20.8657 14.5042L20.7183 14.6491L21.0688 15.0056ZM21.2162 14.8607L21.5668 15.2173L21.7142 15.0724L21.3637 14.7158L21.0131 14.3593L20.8657 14.5042L21.2162 14.8607ZM21.3637 14.7158L21.7142 15.0724C21.7181 15.0685 21.7196 15.0677 21.7184 15.0685C21.7171 15.0694 21.7139 15.0713 21.709 15.0733C21.7041 15.0752 21.6991 15.0766 21.6948 15.0773C21.6906 15.078 21.6886 15.0778 21.6895 15.0779L21.708 14.5782L21.7265 14.0785C21.4504 14.0683 21.2041 14.1715 21.0131 14.3593L21.3637 14.7158ZM21.708 14.5782L21.6895 15.0779L21.8864 15.0852L21.9049 14.5855L21.9234 14.0858L21.7265 14.0785L21.708 14.5782ZM21.9049 14.5855L21.8864 15.0852L22.0834 15.0924L22.1019 14.5928L22.1204 14.0931L21.9234 14.0858L21.9049 14.5855ZM22.1019 14.5928L22.0834 15.0924C22.2341 15.098 22.3816 15.0946 22.5254 15.0817L22.4805 14.5837L22.4356 14.0857C22.3371 14.0946 22.2322 14.0973 22.1204 14.0931L22.1019 14.5928ZM22.4805 14.5837L22.5254 15.0817L22.7071 15.0653L22.6622 14.5673L22.6173 14.0693L22.4356 14.0857L22.4805 14.5837ZM22.6622 14.5673L22.7071 15.0653L22.8889 15.0489L22.844 14.5509L22.7991 14.0529L22.6173 14.0693L22.6622 14.5673ZM22.844 14.5509L22.8889 15.0489C23.0074 15.0382 23.124 15.0286 23.2387 15.0201L23.2017 14.5215L23.1648 14.0228C23.0447 14.0317 22.9228 14.0418 22.7991 14.0529L22.844 14.5509ZM23.2017 14.5215L23.2387 15.0201L23.4147 15.0071L23.3778 14.5084L23.3408 14.0098L23.1648 14.0228L23.2017 14.5215ZM23.3778 14.5084L23.4147 15.0071L23.5907 14.994L23.5538 14.4954L23.5169 13.9968L23.3408 14.0098L23.3778 14.5084ZM23.5538 14.4954L23.5907 14.994C23.6493 14.9897 23.707 14.9954 23.7663 15.0121L23.9018 14.5308L24.0374 14.0495C23.8674 14.0016 23.693 13.9837 23.5169 13.9968L23.5538 14.4954ZM23.9018 14.5308L23.7663 15.0121L23.9383 15.0605L24.0738 14.5792L24.2093 14.0979L24.0374 14.0495L23.9018 14.5308ZM24.0738 14.5792L23.9383 15.0605L24.1103 15.1089L24.2458 14.6276L24.3813 14.1464L24.2093 14.0979L24.0738 14.5792ZM24.2458 14.6276L24.1103 15.1089C24.2762 15.1556 24.4521 15.1763 24.6331 15.1777L24.6369 14.6777L24.6407 14.1777C24.5295 14.1769 24.4447 14.1642 24.3813 14.1464L24.2458 14.6276ZM24.6369 14.6777L24.6331 15.1777L24.8523 15.1794L24.8561 14.6794L24.8599 14.1794L24.6407 14.1777L24.6369 14.6777ZM24.8561 14.6794L24.8523 15.1794L25.0714 15.181L25.0752 14.6811L25.079 14.1811L24.8599 14.1794L24.8561 14.6794ZM25.0752 14.6811L25.0714 15.181C25.0638 15.181 25.0127 15.1778 24.9553 15.1348C24.8981 15.0919 24.8809 15.0438 24.8788 15.0369L25.3576 14.8929L25.8364 14.7489C25.7922 14.6019 25.7068 14.4484 25.5555 14.3349C25.404 14.2213 25.2327 14.1822 25.079 14.1811L25.0752 14.6811ZM25.3576 14.8929L24.8788 15.0369L24.942 15.2471L25.4208 15.1031L25.8996 14.959L25.8364 14.7489L25.3576 14.8929ZM25.4208 15.1031L24.942 15.2471L25.0052 15.4572L25.484 15.3132L25.9628 15.1692L25.8996 14.959L25.4208 15.1031ZM25.484 15.3132L25.0052 15.4572C25.0728 15.6822 25.1967 15.8826 25.3843 16.036L25.7008 15.649L26.0173 15.262C26.0001 15.2479 25.9794 15.2245 25.9628 15.1692L25.484 15.3132ZM25.7008 15.649L25.3843 16.036L25.5378 16.1616L25.8544 15.7746L26.1709 15.3876L26.0173 15.262L25.7008 15.649ZM25.8544 15.7746L25.5378 16.1616L25.6914 16.2873L26.008 15.9002L26.3245 15.5132L26.1709 15.3876L25.8544 15.7746ZM26.008 15.9002L25.6914 16.2873C25.7085 16.3013 25.7122 16.3091 25.7156 16.3244L26.2038 16.2163L26.6919 16.1081C26.6391 15.8695 26.5122 15.6667 26.3245 15.5132L26.008 15.9002ZM26.2038 16.2163L25.7156 16.3244L25.7578 16.5149L26.246 16.4067L26.7341 16.2986L26.6919 16.1081L26.2038 16.2163ZM26.246 16.4067L25.7578 16.5149L25.8 16.7053L26.2882 16.5972L26.7763 16.489L26.7341 16.2986L26.246 16.4067ZM26.2882 16.5972L25.8 16.7053C25.8084 16.7432 25.8065 16.7748 25.7944 16.8104L26.2677 16.9716L26.7409 17.1329C26.8124 16.9232 26.8242 16.7051 26.7763 16.489L26.2882 16.5972ZM26.2677 16.9716L25.7944 16.8104L25.7317 16.9944L26.205 17.1557L26.6782 17.3169L26.7409 17.1329L26.2677 16.9716ZM26.205 17.1557L25.7317 16.9944L25.669 17.1784L26.1423 17.3397L26.6155 17.5009L26.6782 17.3169L26.205 17.1557ZM26.1423 17.3397L25.669 17.1784C25.6077 17.3582 25.5799 17.5445 25.585 17.7345L26.0848 17.7214L26.5846 17.7082C26.5827 17.6346 26.5932 17.5665 26.6155 17.5009L26.1423 17.3397ZM26.0848 17.7214L25.585 17.7345L25.5902 17.9322L26.09 17.919L26.5898 17.9059L26.5846 17.7082L26.0848 17.7214ZM26.09 17.919L25.5902 17.9322L25.5954 18.1299L26.0952 18.1167L26.595 18.1035L26.5898 17.9059L26.09 17.919ZM26.0952 18.1167L25.5954 18.1299C25.5952 18.1233 25.5965 18.0976 25.6129 18.0656C25.6291 18.034 25.6485 18.0189 25.6519 18.0165L25.936 18.428L26.2201 18.8394C26.467 18.6689 26.603 18.4064 26.595 18.1035L26.0952 18.1167ZM25.936 18.428L25.6519 18.0165L25.4874 18.1301L25.7715 18.5415L26.0557 18.9529L26.2201 18.8394L25.936 18.428ZM25.7715 18.5415L25.4874 18.1301L25.323 18.2436L25.6071 18.6551L25.8912 19.0665L26.0557 18.9529L25.7715 18.5415ZM25.6071 18.6551L25.323 18.2436C25.1716 18.3481 25.0392 18.4733 24.9305 18.6202L25.3323 18.9176L25.7342 19.2151C25.7726 19.1633 25.8233 19.1134 25.8912 19.0665L25.6071 18.6551ZM25.3323 18.9176L24.9305 18.6202L24.8201 18.7692L25.222 19.0667L25.6239 19.3642L25.7342 19.2151L25.3323 18.9176ZM25.222 19.0667L24.8201 18.7692L24.7098 18.9183L25.1117 19.2158L25.5136 19.5132L25.6239 19.3642L25.222 19.0667ZM25.1117 19.2158L24.7098 18.9183C24.6535 18.9944 24.586 19.0717 24.5061 19.1499L24.8558 19.5073L25.2055 19.8646C25.3197 19.7529 25.4228 19.6359 25.5136 19.5132L25.1117 19.2158ZM24.8558 19.5073L24.5061 19.1499L24.3605 19.2924L24.7103 19.6497L25.06 20.007L25.2055 19.8646L24.8558 19.5073ZM24.7103 19.6497L24.3605 19.2924L24.215 19.4348L24.5647 19.7922L24.9145 20.1495L25.06 20.007L24.7103 19.6497ZM24.5647 19.7922L24.215 19.4348C24.2256 19.4244 24.2551 19.4021 24.3011 19.3925C24.3447 19.3834 24.371 19.3924 24.3674 19.3912L24.2112 19.8662L24.055 20.3412C24.1901 20.3856 24.3446 20.4051 24.5061 20.3713C24.6699 20.337 24.8068 20.2549 24.9145 20.1495L24.5647 19.7922ZM24.2112 19.8662L24.3674 19.3912L24.1595 19.3228L24.0032 19.7978L23.847 20.2728L24.055 20.3412L24.2112 19.8662ZM24.0032 19.7978L24.1595 19.3228L23.9515 19.2544L23.7953 19.7294L23.639 20.2043L23.847 20.2728L24.0032 19.7978ZM23.7953 19.7294L23.9515 19.2544C23.8593 19.2241 23.7518 19.1972 23.6401 19.1928C23.5325 19.1886 23.3623 19.2034 23.2083 19.3215L23.5124 19.7183L23.8166 20.1152C23.7124 20.195 23.6143 20.1925 23.601 20.192C23.5836 20.1913 23.5926 20.1891 23.639 20.2043L23.7953 19.7294ZM23.5124 19.7183L23.2083 19.3215L23.1334 19.3789L23.4376 19.7757L23.7418 20.1725L23.8166 20.1152L23.5124 19.7183ZM23.4376 19.7757L23.1334 19.3789L23.0586 19.4362L23.3628 19.8331L23.6669 20.2299L23.7418 20.1725L23.4376 19.7757ZM23.3628 19.8331L23.0586 19.4362C23.0887 19.4131 23.116 19.3999 23.1344 19.3926C23.1527 19.3854 23.1652 19.3828 23.1688 19.3822C23.1742 19.3812 23.1614 19.384 23.1224 19.3822L23.0992 19.8817L23.076 20.3811C23.2195 20.3878 23.4666 20.3835 23.6669 20.2299L23.3628 19.8331ZM23.0992 19.8817L23.1224 19.3822L22.9337 19.3734L22.9105 19.8729L22.8873 20.3724L23.076 20.3811L23.0992 19.8817Z"
          fill="white"/>
    <path d="M8.96208 19.8904C10.598 19.8904 15.0978 17.8252 15.0978 17.1024C15.0978 16.3795 10.598 14.3143 8.96208 14.3143C7.32617 14.3143 6 15.5626 6 17.1024C6 18.6422 7.32617 19.8904 8.96208 19.8904Z"
          fill="white"/>
    <path d="M9.52868 19.8666L9.54969 20.3662L9.52868 19.8666ZM9.88978 19.7767L9.67493 19.3252L9.88978 19.7767ZM10.2343 19.6127L10.4491 20.0642L10.2343 19.6127ZM10.6124 19.5531L10.6664 19.0561L10.6124 19.5531ZM11.3812 19.4865L11.7126 19.8609L11.3812 19.4865ZM11.6834 19.219L11.3519 18.8446L11.6834 19.219ZM11.9905 18.9755L12.2781 19.3845L11.9905 18.9755ZM12.1465 18.8658L11.8589 18.4568L12.1465 18.8658ZM12.3026 18.7561L12.015 18.3471L12.3026 18.7561ZM13.0843 18.6527L13.0894 18.1527L13.0843 18.6527ZM13.409 18.4749L12.989 18.2037L13.409 18.4749ZM13.6414 18.115L14.0614 18.3862L13.6414 18.115ZM13.941 17.8808L13.7992 17.4014L13.941 17.8808ZM14.3079 17.7723L14.4498 18.2517L14.3079 17.7723ZM14.8689 17.5309L14.6468 17.0829L14.8689 17.5309ZM15.0576 17.4374L15.2797 17.8854L15.0576 17.4374ZM15.0936 17.1981L14.7485 17.5599L15.0936 17.1981ZM14.9409 17.0525L15.286 16.6907L14.9409 17.0525ZM14.319 16.5834L14.5638 16.1475L14.319 16.5834ZM14.1608 16.4946L13.916 16.9306L14.1608 16.4946ZM13.8841 16.2357L13.4738 16.5215L13.8841 16.2357ZM13.6471 15.8955L14.0573 15.6097L13.6471 15.8955ZM12.5774 15.5299L12.9282 15.1736L12.5774 15.5299ZM12.2923 15.2491L11.9414 15.6053L12.2923 15.2491ZM11.9878 15.0036L12.26 14.5842L11.9878 15.0036ZM11.6639 14.7934L11.3917 15.2128L11.6639 14.7934ZM11.2885 14.7294L11.1941 14.2384L11.2885 14.7294ZM10.8616 14.8114L10.7672 14.3204L10.8616 14.8114ZM10.4957 14.702L10.8468 14.3461L10.4957 14.702ZM10.1906 14.401L10.5418 14.0451L10.1906 14.401ZM9.4317 14.4277L9.29152 13.9477L9.4317 14.4277ZM8.67482 14.3295L8.81115 13.8484L8.67482 14.3295ZM8.31992 14.3633L8.09378 13.9174L8.31992 14.3633ZM8.14994 14.4495L8.37608 14.8954L8.14994 14.4495ZM7.97996 14.5357L7.75382 14.0898L7.97996 14.5357ZM7.63592 14.6903L7.45311 14.2249L7.63592 14.6903ZM6.80873 15.1302L6.50372 14.734L6.80873 15.1302ZM6.42142 15.5393L5.96929 15.3258L6.42142 15.5393ZM6.18196 16.2517L6.68158 16.2322L6.18196 16.2517ZM6.24049 18.0798L6.74038 18.0693L6.24049 18.0798ZM6.405 18.376L6.68334 17.9606L6.405 18.376ZM6.98788 18.8493L7.40277 18.5703L6.98788 18.8493ZM7.19035 19.1504L7.60525 18.8713L7.19035 19.1504ZM7.4598 19.3658L7.63989 18.8994L7.4598 19.3658ZM7.62801 19.4308L7.44793 19.8972L7.62801 19.4308ZM7.79622 19.4957L7.61614 19.9622L7.79622 19.4957ZM8.13224 19.6524L7.8924 20.0911L8.13224 19.6524ZM8.46787 19.8359L8.70771 19.3971L8.46787 19.8359ZM8.71728 19.9183L8.66067 19.4215L8.71728 19.9183ZM8.79888 19.909L8.74227 19.4122L8.79888 19.909ZM8.88048 19.8997L8.93709 20.3965L8.88048 19.8997ZM9.15095 19.8825L9.12994 19.3829L9.15095 19.8825ZM9.33981 19.8745L9.31881 19.375L9.50767 19.367L9.52868 19.8666L9.54969 20.3662L9.36082 20.3741L9.33981 19.8745ZM9.52868 19.8666L9.50767 19.367C9.56576 19.3646 9.62026 19.3512 9.67493 19.3252L9.88978 19.7767L10.1046 20.2282C9.92966 20.3114 9.74341 20.358 9.54969 20.3662L9.52868 19.8666ZM9.88978 19.7767L9.67493 19.3252L9.84717 19.2432L10.062 19.6947L10.2769 20.1462L10.1046 20.2282L9.88978 19.7767ZM10.062 19.6947L9.84717 19.2432L10.0194 19.1613L10.2343 19.6127L10.4491 20.0642L10.2769 20.1462L10.062 19.6947ZM10.2343 19.6127L10.0194 19.1613C10.225 19.0634 10.4452 19.032 10.6664 19.0561L10.6124 19.5531L10.5584 20.0502C10.5051 20.0444 10.4731 20.0528 10.4491 20.0642L10.2343 19.6127ZM10.6124 19.5531L10.6664 19.0561L10.8723 19.0784L10.8183 19.5755L10.7643 20.0726L10.5584 20.0502L10.6124 19.5531ZM10.8183 19.5755L10.8723 19.0784L11.0782 19.1008L11.0242 19.5979L10.9702 20.095L10.7643 20.0726L10.8183 19.5755ZM11.0242 19.5979L11.0782 19.1008C11.0826 19.1013 11.0832 19.101 11.0806 19.1012C11.0778 19.1014 11.0732 19.1021 11.0675 19.1039C11.0617 19.1057 11.0568 19.108 11.0531 19.1101C11.0494 19.1122 11.0484 19.1134 11.0498 19.1121L11.3812 19.4865L11.7126 19.8609C11.5033 20.0462 11.2433 20.1246 10.9702 20.095L11.0242 19.5979ZM11.3812 19.4865L11.0498 19.1121L11.2008 18.9784L11.5323 19.3527L11.8637 19.7271L11.7126 19.8609L11.3812 19.4865ZM11.5323 19.3527L11.2008 18.9784L11.3519 18.8446L11.6834 19.219L12.0148 19.5934L11.8637 19.7271L11.5323 19.3527ZM11.6834 19.219L11.3519 18.8446C11.4658 18.7438 11.5828 18.651 11.7029 18.5665L11.9905 18.9755L12.2781 19.3845C12.1901 19.4464 12.1023 19.5158 12.0148 19.5934L11.6834 19.219ZM11.9905 18.9755L11.7029 18.5665L11.8589 18.4568L12.1465 18.8658L12.4341 19.2748L12.2781 19.3845L11.9905 18.9755ZM12.1465 18.8658L11.8589 18.4568L12.015 18.3471L12.3026 18.7561L12.5902 19.1651L12.4341 19.2748L12.1465 18.8658ZM12.3026 18.7561L12.015 18.3471C12.2127 18.208 12.4388 18.1461 12.6723 18.1485L12.6672 18.6485L12.6621 19.1484C12.6174 19.148 12.6005 19.1578 12.5902 19.1651L12.3026 18.7561ZM12.6672 18.6485L12.6723 18.1485L12.8808 18.1506L12.8757 18.6506L12.8706 19.1506L12.6621 19.1484L12.6672 18.6485ZM12.8757 18.6506L12.8808 18.1506L13.0894 18.1527L13.0843 18.6527L13.0792 19.1527L12.8706 19.1506L12.8757 18.6506ZM13.0843 18.6527L13.0894 18.1527C13.0843 18.1527 13.0598 18.1543 13.0296 18.1708C13.0001 18.187 12.9882 18.2049 12.989 18.2037L13.409 18.4749L13.8291 18.7461C13.6616 19.0055 13.3954 19.1559 13.0792 19.1527L13.0843 18.6527ZM13.409 18.4749L12.989 18.2037L13.1051 18.0238L13.5252 18.295L13.9453 18.5662L13.8291 18.7461L13.409 18.4749ZM13.5252 18.295L13.1051 18.0238L13.2213 17.8439L13.6414 18.115L14.0614 18.3862L13.9453 18.5662L13.5252 18.295ZM13.6414 18.115L13.2213 17.8439C13.3553 17.6362 13.5483 17.4756 13.7992 17.4014L13.941 17.8808L14.0828 18.3603C14.0816 18.3607 14.0815 18.3608 14.0821 18.3605C14.0827 18.3602 14.0828 18.36 14.0823 18.3604C14.0815 18.3611 14.0737 18.3673 14.0614 18.3862L13.6414 18.115ZM13.941 17.8808L13.7992 17.4014L13.9826 17.3471L14.1245 17.8265L14.2663 18.306L14.0828 18.3603L13.941 17.8808ZM14.1245 17.8265L13.9826 17.3471L14.1661 17.2928L14.3079 17.7723L14.4498 18.2517L14.2663 18.306L14.1245 17.8265ZM14.3079 17.7723L14.1661 17.2928C14.2582 17.2656 14.3555 17.2273 14.4581 17.1765L14.6802 17.6244L14.9022 18.0724C14.7531 18.1463 14.6023 18.2066 14.4498 18.2517L14.3079 17.7723ZM14.6802 17.6244L14.4581 17.1765L14.6468 17.0829L14.8689 17.5309L15.0909 17.9789L14.9022 18.0724L14.6802 17.6244ZM14.8689 17.5309L14.6468 17.0829L14.8356 16.9894L15.0576 17.4374L15.2797 17.8854L15.0909 17.9789L14.8689 17.5309ZM15.0576 17.4374L14.8356 16.9894C14.8341 16.9901 14.8273 16.9936 14.8169 17.0007C14.8066 17.0077 14.7903 17.0201 14.7717 17.0392C14.7331 17.079 14.6823 17.1516 14.6666 17.2563C14.6508 17.3609 14.6779 17.4451 14.7028 17.4941C14.7148 17.5177 14.7266 17.5342 14.7343 17.5439C14.742 17.5536 14.7474 17.5589 14.7485 17.5599L15.0936 17.1981L15.4388 16.8364C15.5214 16.9151 15.6992 17.1146 15.6554 17.4052C15.6116 17.6965 15.3822 17.8345 15.2797 17.8854L15.0576 17.4374ZM15.0936 17.1981L14.7485 17.5599L14.5958 17.4143L14.9409 17.0525L15.286 16.6907L15.4388 16.8364L15.0936 17.1981ZM14.9409 17.0525L14.5958 17.4143L14.4431 17.2686L14.7882 16.9068L15.1333 16.545L15.286 16.6907L14.9409 17.0525ZM14.7882 16.9068L14.4431 17.2686C14.3667 17.1958 14.2962 17.1441 14.2325 17.1083L14.4773 16.6723L14.7221 16.2363C14.8693 16.319 15.0061 16.4237 15.1333 16.545L14.7882 16.9068ZM14.4773 16.6723L14.2325 17.1083L14.0742 17.0194L14.319 16.5834L14.5638 16.1475L14.7221 16.2363L14.4773 16.6723ZM14.319 16.5834L14.0742 17.0194L13.916 16.9306L14.1608 16.4946L14.4056 16.0586L14.5638 16.1475L14.319 16.5834ZM14.1608 16.4946L13.916 16.9306C13.736 16.8295 13.5898 16.6879 13.4738 16.5215L13.8841 16.2357L14.2943 15.9498C14.3363 16.0101 14.3746 16.0412 14.4056 16.0586L14.1608 16.4946ZM13.8841 16.2357L13.4738 16.5215L13.3553 16.3514L13.7656 16.0656L14.1758 15.7798L14.2943 15.9498L13.8841 16.2357ZM13.7656 16.0656L13.3553 16.3514L13.2368 16.1814L13.6471 15.8955L14.0573 15.6097L14.1758 15.7798L13.7656 16.0656ZM13.6471 15.8955L13.2368 16.1814C13.2344 16.1779 13.2409 16.1879 13.259 16.1983C13.2673 16.203 13.2754 16.2063 13.2823 16.2083C13.289 16.2103 13.2928 16.2105 13.2924 16.2105L13.3264 15.7117L13.3605 15.2128C13.6504 15.2326 13.894 15.3753 14.0573 15.6097L13.6471 15.8955ZM13.3264 15.7117L13.2924 16.2105L13.0902 16.1967L13.1243 15.6979L13.1583 15.199L13.3605 15.2128L13.3264 15.7117ZM13.1243 15.6979L13.0902 16.1967L12.888 16.1829L12.9221 15.6841L12.9561 15.1852L13.1583 15.199L13.1243 15.6979ZM12.9221 15.6841L12.888 16.1829C12.6357 16.1657 12.4079 16.0648 12.2265 15.8861L12.5774 15.5299L12.9282 15.1736C12.9323 15.1777 12.9351 15.1798 12.9365 15.1807C12.9379 15.1817 12.9386 15.182 12.939 15.1822C12.9393 15.1824 12.9404 15.1828 12.9426 15.1834C12.9449 15.1839 12.9493 15.1848 12.9561 15.1852L12.9221 15.6841ZM12.5774 15.5299L12.2265 15.8861L12.084 15.7457L12.4348 15.3895L12.7856 15.0332L12.9282 15.1736L12.5774 15.5299ZM12.4348 15.3895L12.084 15.7457L11.9414 15.6053L12.2923 15.2491L12.6431 14.8928L12.7856 15.0332L12.4348 15.3895ZM12.2923 15.2491L11.9414 15.6053C11.8695 15.5345 11.7942 15.4741 11.7156 15.423L11.9878 15.0036L12.26 14.5842C12.3972 14.6733 12.5249 14.7765 12.6431 14.8928L12.2923 15.2491ZM11.9878 15.0036L11.7156 15.423L11.5536 15.3179L11.8259 14.8985L12.0981 14.4791L12.26 14.5842L11.9878 15.0036ZM11.8259 14.8985L11.5536 15.3179L11.3917 15.2128L11.6639 14.7934L11.9361 14.374L12.0981 14.4791L11.8259 14.8985ZM11.6639 14.7934L11.3917 15.2128C11.3922 15.2131 11.3941 15.2143 11.3972 15.2155C11.4003 15.2167 11.4031 15.2174 11.405 15.2177C11.4093 15.2185 11.4034 15.2164 11.3829 15.2204L11.2885 14.7294L11.1941 14.2384C11.446 14.1899 11.7059 14.2246 11.9361 14.374L11.6639 14.7934ZM11.2885 14.7294L11.3829 15.2204L11.1695 15.2614L11.0751 14.7704L10.9807 14.2794L11.1941 14.2384L11.2885 14.7294ZM11.0751 14.7704L11.1695 15.2614L10.956 15.3024L10.8616 14.8114L10.7672 14.3204L10.9807 14.2794L11.0751 14.7704ZM10.8616 14.8114L10.956 15.3024C10.6548 15.3604 10.3654 15.2759 10.1445 15.0579L10.4957 14.702L10.8468 14.3461C10.8474 14.3466 10.8441 14.3433 10.8366 14.3387C10.8289 14.334 10.8187 14.3292 10.8067 14.3256C10.7805 14.3177 10.7641 14.321 10.7672 14.3204L10.8616 14.8114ZM10.4957 14.702L10.1445 15.0579L9.99199 14.9074L10.3432 14.5515L10.6943 14.1956L10.8468 14.3461L10.4957 14.702ZM10.3432 14.5515L9.99199 14.9074L9.83947 14.757L10.1906 14.401L10.5418 14.0451L10.6943 14.1956L10.3432 14.5515ZM10.1906 14.401L9.83947 14.757C9.84066 14.7581 9.861 14.7768 9.90089 14.7871C9.94127 14.7975 9.97036 14.7912 9.97616 14.7895L9.83598 14.3096L9.69581 13.8296C9.83637 13.7886 9.99195 13.7779 10.1506 13.8188C10.3087 13.8595 10.4389 13.9436 10.5418 14.0451L10.1906 14.401ZM9.83598 14.3096L9.97616 14.7895L9.77402 14.8486L9.63384 14.3686L9.49366 13.8887L9.69581 13.8296L9.83598 14.3096ZM9.63384 14.3686L9.77402 14.8486L9.57187 14.9076L9.4317 14.4277L9.29152 13.9477L9.49366 13.8887L9.63384 14.3686ZM9.4317 14.4277L9.57187 14.9076C9.35583 14.9707 9.13059 14.9784 8.90831 14.9154L9.04464 14.4343L9.18098 13.9533C9.20524 13.9601 9.23804 13.9633 9.29152 13.9477L9.4317 14.4277ZM9.04464 14.4343L8.90831 14.9154L8.72339 14.863L8.85973 14.3819L8.99607 13.9008L9.18098 13.9533L9.04464 14.4343ZM8.85973 14.3819L8.72339 14.863L8.53848 14.8106L8.67482 14.3295L8.81115 13.8484L8.99607 13.9008L8.85973 14.3819ZM8.67482 14.3295L8.53848 14.8106C8.53472 14.8095 8.53351 14.8095 8.53453 14.8096C8.53563 14.8097 8.53795 14.8098 8.54104 14.8095C8.54413 14.8092 8.54661 14.8086 8.54809 14.8082C8.5495 14.8078 8.54888 14.8078 8.54606 14.8092L8.31992 14.3633L8.09378 13.9174C8.32027 13.8025 8.56807 13.7795 8.81115 13.8484L8.67482 14.3295ZM8.31992 14.3633L8.54606 14.8092L8.37608 14.8954L8.14994 14.4495L7.9238 14.0036L8.09378 13.9174L8.31992 14.3633ZM8.14994 14.4495L8.37608 14.8954L8.2061 14.9816L7.97996 14.5357L7.75382 14.0898L7.9238 14.0036L8.14994 14.4495ZM7.97996 14.5357L8.2061 14.9816C8.07892 15.0461 7.9498 15.1042 7.81874 15.1556L7.63592 14.6903L7.45311 14.2249C7.55412 14.1852 7.65435 14.1402 7.75382 14.0898L7.97996 14.5357ZM7.63592 14.6903L7.81874 15.1556L7.64469 15.224L7.46187 14.7586L7.27905 14.2933L7.45311 14.2249L7.63592 14.6903ZM7.46187 14.7586L7.64469 15.224L7.47063 15.2924L7.28782 14.827L7.105 14.3616L7.27905 14.2933L7.46187 14.7586ZM7.28782 14.827L7.47063 15.2924C7.39965 15.3203 7.33176 15.3586 7.26626 15.409L6.96125 15.0128L6.65624 14.6166C6.79409 14.5105 6.94391 14.4249 7.105 14.3616L7.28782 14.827ZM6.96125 15.0128L7.26626 15.409L7.11374 15.5264L6.80873 15.1302L6.50372 14.734L6.65624 14.6166L6.96125 15.0128ZM6.80873 15.1302L7.11374 15.5264L6.96123 15.6438L6.65622 15.2476L6.35121 14.8514L6.50372 14.734L6.80873 15.1302ZM6.65622 15.2476L6.96123 15.6438C6.92247 15.6737 6.89459 15.7082 6.87355 15.7528L6.42142 15.5393L5.96929 15.3258C6.05796 15.138 6.18662 14.9781 6.35121 14.8514L6.65622 15.2476ZM6.42142 15.5393L6.87355 15.7528L6.79126 15.9271L6.33913 15.7136L5.88701 15.5001L5.96929 15.3258L6.42142 15.5393ZM6.33913 15.7136L6.79126 15.9271L6.70898 16.1013L6.25685 15.8878L5.80472 15.6743L5.88701 15.5001L6.33913 15.7136ZM6.25685 15.8878L6.70898 16.1013C6.68789 16.146 6.67984 16.1874 6.68158 16.2322L6.18196 16.2517L5.68234 16.2712C5.67422 16.0631 5.71609 15.862 5.80472 15.6743L6.25685 15.8878ZM6.18196 16.2517L6.68158 16.2322L6.68898 16.4217L6.18936 16.4412L5.68974 16.4607L5.68234 16.2712L6.18196 16.2517ZM6.18936 16.4412L6.68898 16.4217L6.69638 16.6113L6.19676 16.6308L5.69714 16.6503L5.68974 16.4607L6.18936 16.4412ZM6.19676 16.6308L6.69638 16.6113C6.70133 16.7382 6.70586 16.8598 6.70996 16.9761L6.21027 16.9937L5.71058 17.0113C5.70653 16.8964 5.70205 16.7761 5.69714 16.6503L6.19676 16.6308ZM6.21027 16.9937L6.70996 16.9761L6.71606 17.1495L6.21637 17.1671L5.71669 17.1847L5.71058 17.0113L6.21027 16.9937ZM6.21637 17.1671L6.71606 17.1495L6.72217 17.3228L6.22248 17.3404L5.72279 17.358L5.71669 17.1847L6.21637 17.1671ZM6.22248 17.3404L6.72217 17.3228C6.72634 17.441 6.72976 17.564 6.73245 17.692L6.23256 17.7025L5.73267 17.713C5.73007 17.5894 5.72678 17.4711 5.72279 17.358L6.22248 17.3404ZM6.23256 17.7025L6.73245 17.692L6.73642 17.8806L6.23653 17.8911L5.73664 17.9016L5.73267 17.713L6.23256 17.7025ZM6.23653 17.8911L6.73642 17.8806L6.74038 18.0693L6.24049 18.0798L5.7406 18.0903L5.73664 17.9016L6.23653 17.8911ZM6.24049 18.0798L6.74038 18.0693C6.74019 18.0602 6.73714 18.035 6.72072 18.0054C6.70455 17.9763 6.68637 17.9627 6.68334 17.9606L6.405 18.376L6.12666 18.7914C5.8881 18.6315 5.74677 18.3837 5.7406 18.0903L6.24049 18.0798ZM6.405 18.376L6.68334 17.9606L6.84389 18.0682L6.56555 18.4836L6.28721 18.899L6.12666 18.7914L6.405 18.376ZM6.56555 18.4836L6.84389 18.0682L7.00443 18.1758L6.72609 18.5912L6.44775 19.0065L6.28721 18.899L6.56555 18.4836ZM6.72609 18.5912L7.00443 18.1758C7.16183 18.2813 7.29672 18.4126 7.40277 18.5703L6.98788 18.8493L6.57298 19.1283C6.54404 19.0853 6.50441 19.0445 6.44775 19.0065L6.72609 18.5912ZM6.98788 18.8493L7.40277 18.5703L7.50401 18.7208L7.08911 18.9998L6.67422 19.2789L6.57298 19.1283L6.98788 18.8493ZM7.08911 18.9998L7.50401 18.7208L7.60525 18.8713L7.19035 19.1504L6.77546 19.4294L6.67422 19.2789L7.08911 18.9998ZM7.19035 19.1504L7.60525 18.8713C7.61591 18.8872 7.624 18.8933 7.63989 18.8994L7.4598 19.3658L7.27972 19.8323C7.07133 19.7518 6.89979 19.6143 6.77546 19.4294L7.19035 19.1504ZM7.4598 19.3658L7.63989 18.8994L7.8081 18.9643L7.62801 19.4308L7.44793 19.8972L7.27972 19.8323L7.4598 19.3658ZM7.62801 19.4308L7.8081 18.9643L7.97631 19.0293L7.79622 19.4957L7.61614 19.9622L7.44793 19.8972L7.62801 19.4308ZM7.79622 19.4957L7.97631 19.0293C8.11015 19.0809 8.24208 19.1426 8.37208 19.2137L8.13224 19.6524L7.8924 20.0911C7.79866 20.0399 7.70658 19.9971 7.61614 19.9622L7.79622 19.4957ZM8.13224 19.6524L8.37208 19.2137L8.5399 19.3054L8.30006 19.7441L8.06022 20.1829L7.8924 20.0911L8.13224 19.6524ZM8.30006 19.7441L8.5399 19.3054L8.70771 19.3971L8.46787 19.8359L8.22803 20.2746L8.06022 20.1829L8.30006 19.7441ZM8.46787 19.8359L8.70771 19.3971C8.72686 19.4076 8.74195 19.4151 8.75328 19.4202C8.76481 19.4255 8.77051 19.4274 8.77105 19.4276C8.77197 19.4279 8.76359 19.425 8.74755 19.4225C8.73199 19.4201 8.70142 19.4169 8.66067 19.4215L8.71728 19.9183L8.77389 20.4151C8.64439 20.4299 8.53094 20.4015 8.45721 20.3771C8.37725 20.3507 8.29964 20.3137 8.22803 20.2746L8.46787 19.8359ZM8.71728 19.9183L8.66067 19.4215L8.74227 19.4122L8.79888 19.909L8.85549 20.4058L8.77389 20.4151L8.71728 19.9183ZM8.79888 19.909L8.74227 19.4122L8.82387 19.4029L8.88048 19.8997L8.93709 20.3965L8.85549 20.4058L8.79888 19.909ZM8.88048 19.8997L8.82387 19.4029C8.8976 19.3945 9.00337 19.3882 9.12994 19.3829L9.15095 19.8825L9.17196 20.382C9.0467 20.3873 8.97216 20.3925 8.93709 20.3965L8.88048 19.8997ZM9.15095 19.8825L9.12994 19.3829L9.31881 19.375L9.33981 19.8745L9.36082 20.3741L9.17196 20.382L9.15095 19.8825Z"
          fill="white"/>
</svg>
